<?xml version="1.0" encoding="UTF-8"?>
<svg version="1.1" xmlns="http://www.w3.org/2000/svg" width="2400" height="447">
<path d="M0 0 C0.66 0 1.32 0 2 0 C4.48274368 12.82059384 6.96049953 25.64214054 9.43187714 38.46493053 C10.57956991 44.41891158 11.7289837 50.37254963 12.88232422 56.32543945 C13.99511667 62.06938138 15.10339661 67.81417713 16.20854187 73.55959511 C16.63115048 75.75236391 17.05538921 77.94481918 17.48127747 80.13695335 C18.07711222 83.20531778 18.66716236 86.27474175 19.25585938 89.34448242 C19.43352341 90.25222916 19.61118744 91.15997589 19.79423523 92.0952301 C19.95410416 92.93510468 20.11397308 93.77497925 20.27868652 94.64030457 C20.48885532 95.72848118 20.48885532 95.72848118 20.70326996 96.83864117 C21 99 21 99 21 104 C24.63 104 28.26 104 32 104 C32 107.96 32 111.92 32 116 C38.6 116 45.2 116 52 116 C52 116.66 52 117.32 52 118 C52.92731934 117.89486084 53.85463867 117.78972168 54.81005859 117.68139648 C67.65173015 116.87849537 76.44021586 121.17264027 87.625 127.0625 C89.31099834 127.92157331 90.99849622 128.77771015 92.6875 129.63085938 C95.94936778 131.2841985 99.20188826 132.95376191 102.44628906 134.64111328 C108.59346545 137.83578962 114.79462659 140.92021605 121 144 C121 144.33 121 144.66 121 145 C109.45 145 97.9 145 86 145 C86 145.66 86 146.32 86 147 C85.34 147 84.68 147 84 147 C84 148.32 84 149.64 84 151 C84.66 151 85.32 151 86 151 C86 152.32 86 153.64 86 155 C85.34 155 84.68 155 84 155 C84 167.87 84 180.74 84 194 C85.98 194 87.96 194 90 194 C92.55001831 194.89526367 92.55001831 194.89526367 95.10888672 196.16796875 C96.56232986 196.88001465 96.56232986 196.88001465 98.0451355 197.60644531 C99.59673874 198.38906738 99.59673874 198.38906738 101.1796875 199.1875 C102.26524933 199.72342773 103.35081116 200.25935547 104.4692688 200.81152344 C107.94345926 202.52995562 111.40921104 204.26469604 114.875 206 C117.16873532 207.13779895 119.46300122 208.27452894 121.7578125 209.41015625 C128.17931521 212.5919538 134.59084748 215.79341494 141 219 C142.73333956 219.86600326 144.46673338 220.73189795 146.20019531 221.59765625 C149.80107833 223.39654814 153.40096284 225.19741812 157 227 C157 227.33 157 227.66 157 228 C142.15 228 127.3 228 112 228 C112 228.66 112 229.32 112 230 C111.01 230 110.02 230 109 230 C109 231.98 109 233.96 109 236 C109.99 236 110.98 236 112 236 C112 237.65 112 239.3 112 241 C111.01 241 110.02 241 109 241 C109 257.5 109 274 109 291 C110.65 291.33 112.3 291.66 114 292 C116.34773172 293.02226744 118.62480242 294.07996917 120.9140625 295.21875 C121.58905792 295.54863922 122.26405334 295.87852844 122.95950317 296.21841431 C125.18396571 297.3069999 127.40439984 298.40356016 129.625 299.5 C131.18231207 300.26348075 132.73993429 301.02632918 134.29785156 301.78857422 C137.55104618 303.38094703 140.8028711 304.9760678 144.05371094 306.57324219 C151.19907655 310.08173453 158.3579927 313.56230741 165.51824951 317.0402832 C167.68297885 318.09242514 169.84670601 319.14660309 172.01025391 320.20117188 C180.96453475 324.56022008 189.96233409 328.81661915 199 333 C199 333.66 199 334.32 199 335 C180.19 335 161.38 335 142 335 C142 335.99 142 336.98 142 338 C140.68 338 139.36 338 138 338 C138 340.31 138 342.62 138 345 C139.32 345 140.64 345 142 345 C142 346.98 142 348.96 142 351 C140.68 351 139.36 351 138 351 C138.33 357.93 138.66 364.86 139 372 C142.67343374 368.32656626 144.59842371 366.23134869 147 362 C147.66 361.34 148.32 360.68 149 360 C149.268125 358.88625 149.53625 357.7725 149.8125 356.625 C151.19574518 352.40246209 152.11757428 351.11001398 156 349 C158.01287508 348.9680496 160.02948548 348.94297126 162.0390625 349.0625 C164.25011887 349.14171749 164.25011887 349.14171749 166.8125 347.4375 C170.40621472 345.81680512 171.37329432 346.08982861 175.125 346.75 C182.50242972 347.6822024 187.12939918 344.07347812 193 340 C194.68640197 338.85255124 196.37379177 337.70655193 198.0625 336.5625 C198.75472656 336.06878906 199.44695313 335.57507813 200.16015625 335.06640625 C202 334 202 334 205 334 C205 333.34 205 332.68 205 332 C206.63647461 330.68725586 206.63647461 330.68725586 208.90234375 329.21484375 C209.70994141 328.68439453 210.51753906 328.15394531 211.34960938 327.60742188 C212.63061523 326.78081055 212.63061523 326.78081055 213.9375 325.9375 C215.61381102 324.84325907 217.28961935 323.74824752 218.96484375 322.65234375 C219.7137085 322.16757568 220.46257324 321.68280762 221.23413086 321.18334961 C222.94528681 320.11930416 222.94528681 320.11930416 224 319 C219.38 318.67 214.76 318.34 210 318 C209.59650058 314.63110012 209.33956843 312.26880273 210 309 C212.18333335 306.26282318 214.92778928 304.59633995 217.875 302.75 C219.52015282 301.64545647 221.16466486 300.53995806 222.80859375 299.43359375 C223.66179199 298.87397949 224.51499023 298.31436523 225.39404297 297.73779297 C229.66640781 294.88874922 233.79350961 291.84377584 237.9375 288.8125 C239.42474176 287.73424186 240.91294804 286.65731218 242.40234375 285.58203125 C243.02616943 285.13061768 243.64999512 284.6792041 244.29272461 284.21411133 C247.611624 281.85391017 249.99113236 280.65008664 254 280 C254 279.34 254 278.68 254 278 C253.43796875 277.77441406 252.8759375 277.54882812 252.296875 277.31640625 C249.35293638 275.62914891 247.52180106 273.45167474 245.25 270.9375 C241.03535991 266.53330877 241.03535991 266.53330877 235.375 264.875 C233.704375 264.936875 233.704375 264.936875 232 265 C231.671875 261.8046875 231.671875 261.8046875 232 258 C234.203125 255.4453125 234.203125 255.4453125 237.25 253.125 C237.78343018 252.70935791 238.31686035 252.29371582 238.86645508 251.86547852 C240.56138358 250.55392375 242.27809266 249.27586238 244 248 C245.14538504 247.13263673 246.28992934 246.264162 247.43359375 245.39453125 C249.512189 243.81993089 251.60084786 242.26344691 253.69921875 240.71484375 C255.85080548 239.197323 255.85080548 239.197323 257 238 C258.85287502 237.92773498 260.70833878 237.9161878 262.5625 237.9375 C263.57441406 237.94652344 264.58632813 237.95554688 265.62890625 237.96484375 C266.80259766 237.98224609 266.80259766 237.98224609 268 238 C268 237.01 268 236.02 268 235 C269.65 235 271.3 235 273 235 C273 234.01 273 233.02 273 232 C273.99 232 274.98 232 276 232 C276.103125 230.824375 276.20625 229.64875 276.3125 228.4375 C277.06380475 221.54317405 278.57946568 214.78104119 280 208 C280.66 208.33 281.32 208.66 282 209 C282.59423828 211.22485352 282.59423828 211.22485352 283.0703125 214.12890625 C283.24433594 215.16337891 283.41835938 216.19785156 283.59765625 217.26367188 C283.77167969 218.35228516 283.94570313 219.44089844 284.125 220.5625 C284.30675781 221.65498047 284.48851562 222.74746094 284.67578125 223.87304688 C285.12510746 226.5808285 285.56612573 229.28970677 286 232 C286.99 232.33 287.98 232.66 289 233 C289 233.66 289 234.32 289 235 C290.32 235 291.64 235 293 235 C293 235.99 293 236.98 293 238 C293.65484375 237.89558594 294.3096875 237.79117188 294.984375 237.68359375 C301.56768816 237.09779046 305.38851259 238.35855861 310.5 242.5 C311.4796875 243.3353125 312.459375 244.170625 313.46875 245.03125 C315.86021888 247.30697031 315.86021888 247.30697031 319 247 C319.33 246.01 319.66 245.02 320 244 C321.63213757 242.51988931 323.33090189 241.11241282 325.0625 239.75 C329.1929204 236.45314439 333.23070588 233.09973814 337.1875 229.59765625 C338.857291 228.12579306 340.54884618 226.68534853 342.25 225.25 C346.04388138 222.00921295 349.70573659 218.62593275 353.37695312 215.24804688 C358.21763254 210.79413835 363.09674295 206.38495974 368 202 C368.76828125 201.30261719 369.5365625 200.60523438 370.328125 199.88671875 C371.04484375 199.24347656 371.7615625 198.60023438 372.5 197.9375 C373.1290625 197.36902344 373.758125 196.80054688 374.40625 196.21484375 C376 195 376 195 378 195 C378.37318359 194.12021484 378.37318359 194.12021484 378.75390625 193.22265625 C380.17411196 190.68943667 381.71183746 189.29014647 383.9375 187.4375 C386.88306043 184.96809867 386.88306043 184.96809867 389.62890625 182.28515625 C391 181 391 181 393 181 C393.33 180.01 393.66 179.02 394 178 C394.804375 177.690625 395.60875 177.38125 396.4375 177.0625 C399.09812213 176.28946239 399.09812213 176.28946239 399.8671875 174.23828125 C403.5012848 167.05780623 411.73482467 160.95993047 418 156 C418.66 156 419.32 156 420 156 C420.4021875 155.0409375 420.4021875 155.0409375 420.8125 154.0625 C422 152 422 152 425 151 C425.268125 150.443125 425.53625 149.88625 425.8125 149.3125 C427.532843 145.96235837 430.08575288 143.37574493 433 141 C433.66 141 434.32 141 435 141 C435.2578125 140.40703125 435.515625 139.8140625 435.78125 139.203125 C437.09769895 136.82339035 438.42580782 135.49021208 440.5 133.75 C441.41265625 132.96882813 441.41265625 132.96882813 442.34375 132.171875 C444 131 444 131 446 131 C446.32484375 130.18789063 446.32484375 130.18789063 446.65625 129.359375 C448.46499997 126.18354656 450.91723799 123.79271919 453.5 121.25 C453.99886719 120.74339844 454.49773437 120.23679687 455.01171875 119.71484375 C458.74658861 116 458.74658861 116 461 116 C461.4021875 115.12601563 461.4021875 115.12601563 461.8125 114.234375 C463.01480991 111.97213399 464.33825913 110.19423682 466 108.25 C466.515625 107.63640625 467.03125 107.0228125 467.5625 106.390625 C469 105 469 105 471 105 C471 94.44 471 83.88 471 73 C473.64 72.67 476.28 72.34 479 72 C483.62 55.83 488.24 39.66 493 23 C495 24 495 24 495.73403931 25.84640503 C495.96054169 26.65232086 496.18704407 27.45823669 496.42041016 28.28857422 C496.68052887 29.1997702 496.94064758 30.11096619 497.20864868 31.04977417 C497.48268524 32.04139557 497.7567218 33.03301697 498.0390625 34.0546875 C498.46764053 35.57341965 498.46764053 35.57341965 498.90487671 37.12283325 C499.50870533 39.26882228 500.10866176 41.41590399 500.70507812 43.56396484 C501.6198474 46.85645446 502.54716114 50.14520813 503.4765625 53.43359375 C504.06064229 55.51541572 504.64399971 57.59744052 505.2265625 59.6796875 C505.64369003 61.16104691 505.64369003 61.16104691 506.06924438 62.67233276 C506.32305878 63.58983307 506.57687317 64.50733337 506.83837891 65.45263672 C507.1757457 66.66389725 507.1757457 66.66389725 507.51992798 67.89962769 C508 70 508 70 508 73 C510.64 73 513.28 73 516 73 C516 74.32 516 75.64 516 77 C516.185625 77.721875 516.37125 78.44375 516.5625 79.1875 C516.706875 79.785625 516.85125 80.38375 517 81 C516.67 81.33 516.34 81.66 516 82 C515.91286169 83.70772358 515.89299993 85.41898649 515.90234375 87.12890625 C515.90556641 88.16337891 515.90878906 89.19785156 515.91210938 90.26367188 C515.92048828 91.35228516 515.92886719 92.44089844 515.9375 93.5625 C515.94201172 94.65498047 515.94652344 95.74746094 515.95117188 96.87304688 C515.96300174 99.58208495 515.97948457 102.29101599 516 105 C516.93054199 105.44375977 516.93054199 105.44375977 517.87988281 105.89648438 C520.27449179 107.14287228 521.85296507 108.5867511 523.75 110.5 C524.36359375 111.1084375 524.9771875 111.716875 525.609375 112.34375 C527 114 527 114 527 116 C527.9590625 116.4021875 527.9590625 116.4021875 528.9375 116.8125 C531 118 531 118 532 121 C532.8353125 121.4021875 532.8353125 121.4021875 533.6875 121.8125 C537.03764163 123.532843 539.62425507 126.08575288 542 129 C542 129.66 542 130.32 542 131 C542.9590625 131.4021875 542.9590625 131.4021875 543.9375 131.8125 C546 133 546 133 547 136 C547.56203125 136.2784375 548.1240625 136.556875 548.703125 136.84375 C551.94030465 138.47335064 554.23619484 140.94660736 556.75 143.5 C557.25660156 143.99886719 557.76320313 144.49773437 558.28515625 145.01171875 C562 148.74658861 562 148.74658861 562 151 C562.61875 151.0825 563.2375 151.165 563.875 151.25 C566.67505419 152.23825442 566.74113932 153.40359985 568 156 C569.32520503 156.68268138 570.65812182 157.3507041 572 158 C572.33 158.99 572.66 159.98 573 161 C574.33083651 161.67163712 575.66487938 162.33691996 577 163 C579.14007163 164.79632956 581.20289463 166.60471345 583.25 168.5 C583.80429688 168.99886719 584.35859375 169.49773437 584.9296875 170.01171875 C586.3285008 171.2968354 587.66944254 172.64433768 589 174 C589 174.66 589 175.32 589 176 C589.9590625 176.4021875 589.9590625 176.4021875 590.9375 176.8125 C593 178 593 178 594 181 C595.32338632 181.68620031 596.65949948 182.34786461 598 183 C600.14167916 184.56044105 602.03044262 186.20949329 604 188 C604 188.66 604 189.32 604 190 C604.58910156 190.27199219 605.17820312 190.54398438 605.78515625 190.82421875 C611.3004367 193.75208368 615.62815545 198.62815545 620 203 C626.10563173 208.66116045 632.41093618 214.08321021 638.74902344 219.47998047 C642.45954889 222.64934564 646.0956917 225.88303637 649.6875 229.1875 C656.5230047 235.45758629 663.75783545 241.21145988 671 247 C671.556875 246.29875 672.11375 245.5975 672.6875 244.875 C673.8321875 243.451875 673.8321875 243.451875 675 242 C675.9590625 240.3603125 675.9590625 240.3603125 676.9375 238.6875 C678.9481128 236.18383883 679.93939758 236.00715138 683.2109375 235.62109375 C686.47639989 235.62463547 689.7405164 235.80245554 693 236 C693 228.08 693 220.16 693 212 C687.06 212 681.12 212 675 212 C675 202.15928703 676.40331358 199.12758523 681.625 191.4375 C682.29345947 190.44476074 682.96191895 189.45202148 683.65063477 188.42919922 C689.40081962 180.55754107 689.40081962 180.55754107 694.11328125 179.57421875 C697.9375 179.625 697.9375 179.625 704 181 C704 174.73 704 168.46 704 162 C698.72 162 693.44 162 688 162 C688 153.00020149 688 153.00020149 690.08203125 150.296875 C690.51966797 149.7090625 690.95730469 149.12125 691.40820312 148.515625 C692.10333008 147.64164062 692.10333008 147.64164062 692.8125 146.75 C693.26431641 146.151875 693.71613281 145.55375 694.18164062 144.9375 C695.05480165 143.78518239 695.94145642 142.64293136 696.84301758 141.51269531 C698.12313726 139.90869597 698.12313726 139.90869597 699.375 137.59375 C701 136 701 136 704.35546875 135.609375 C707.90364583 135.73958333 711.45182292 135.86979167 715 136 C715 131.05 715 126.1 715 121 C711.04 121 707.08 121 703 121 C702.54925608 115.22029974 703.52405923 112.38000958 706.875 107.6875 C707.59429688 106.66011719 708.31359375 105.63273437 709.0546875 104.57421875 C711 102 711 102 713 100 C717.01194366 99.72216457 720.97447362 99.9143505 725 100 C725 96.04 725 92.08 725 88 C722.03 88 719.06 88 716 88 C715.50203358 83.30366155 716.9210458 80.96999774 719.625 77.1875 C720.63433594 75.72376953 720.63433594 75.72376953 721.6640625 74.23046875 C724 72 724 72 727.2734375 71.67578125 C728.17320313 71.78277344 729.07296875 71.88976562 730 72 C730 71.34 730 70.68 730 70 C731.98 70 733.96 70 736 70 C736 69.01 736 68.02 736 67 C736.80824219 67.03222656 737.61648438 67.06445312 738.44921875 67.09765625 C741.83995248 67.06084491 744.72277638 66.89495053 748 66 C750.4962459 63.29445741 751.79858555 60.45755904 753 57 C753.66 57 754.32 57 755 57 C755.12375 55.906875 755.2475 54.81375 755.375 53.6875 C756 50 756 50 758 47 C758.18175781 47.61488281 758.36351562 48.22976562 758.55078125 48.86328125 C758.80214844 49.67152344 759.05351563 50.47976562 759.3125 51.3125 C759.67794922 52.51326172 759.67794922 52.51326172 760.05078125 53.73828125 C761.05754931 56.13712366 762.1209664 57.24819264 764 59 C767 64.44444444 767 64.44444444 767 67 C771.29 67 775.58 67 780 67 C780 67.99 780 68.98 780 70 C781.65 70 783.3 70 785 70 C785 70.66 785 71.32 785 72 C786.06347656 71.88140625 787.12695312 71.7628125 788.22265625 71.640625 C792 72 792 72 794.43359375 74.484375 C795.09488281 75.56203125 795.75617188 76.6396875 796.4375 77.75 C797.11683594 78.81734375 797.79617188 79.8846875 798.49609375 80.984375 C800 84 800 84 800 88 C796.7 88 793.4 88 790 88 C790 91.96 790 95.92 790 100 C791.93875 99.690625 793.8775 99.38125 795.875 99.0625 C799.37006708 99.02804698 801.87023544 99.02704165 804.59716797 101.37548828 C809.83735108 107.53103213 813 112.85411121 813 121 C808.71 121 804.42 121 800 121 C800 125.95 800 130.9 800 136 C802.31 135.7525 804.62 135.505 807 135.25 C809.99087681 135.10903325 811.96856643 135.39187047 815 136 C818.7330709 139.4841995 820.72743058 143.47687153 823 148 C823.72316406 149.03125 824.44632813 150.0625 825.19140625 151.125 C827.7240331 155.15094678 827.31975747 157.36351671 827 162 C822.05 162 817.1 162 812 162 C812 168.27 812 174.54 812 181 C814.784375 180.38125 814.784375 180.38125 817.625 179.75 C822.23909352 179.66389727 822.23909352 179.66389727 825 181 C830.81680709 186.68912462 834.84150121 194.06916868 839 201 C839.66 201.99 840.32 202.98 841 204 C841 206.64 841 209.28 841 212 C834.73 212 828.46 212 822 212 C822 219.92 822 227.84 822 236 C824.083125 235.67 826.16625 235.34 828.3125 235 C834.7979203 234.96069442 834.7979203 234.96069442 837.62988281 237.40917969 C840.86022337 241.28181018 843.33884563 245.6163614 845.81445312 249.99560547 C847.38727133 252.65475651 849.2708888 255.01873667 851.1875 257.4375 C854.51032512 262.11641842 854.71674931 265.35559915 854 271 C853 272 853 272 850.95874023 272.11352539 C850.08419189 272.10828857 849.20964355 272.10305176 848.30859375 272.09765625 C847.45837646 272.09515869 846.60815918 272.09266113 845.73217773 272.09008789 C844.10131226 272.07643188 844.10131226 272.07643188 842.4375 272.0625 C838.993125 272.041875 835.54875 272.02125 832 272 C832 280.91 832 289.82 832 299 C835.3 299 838.6 299 842 299 C842 310.55 842 322.1 842 334 C842.99 334 843.98 334 845 334 C845 335.32 845 336.64 845 338 C844.01 338 843.02 338 842 338 C840.44388733 355.56081883 840.44388733 355.56081883 845.73828125 371.375 C848.5273596 374.12005351 851.55832643 376.15717328 855 378 C858.49703334 376.65121173 858.49703334 376.65121173 861.80859375 374.9140625 C865.12436268 373.5310145 868.51851683 373.52811538 872.0625 373.375 C872.78244141 373.33632813 873.50238281 373.29765625 874.24414062 373.2578125 C877.16580006 373.10589706 880.07412005 373 883 373 C883 371.35 883 369.7 883 368 C874.09 368 865.18 368 856 368 C860.35973715 363.64026285 864.52573597 360.22274983 869.5 356.6875 C870.24636719 356.13771484 870.99273438 355.58792969 871.76171875 355.02148438 C872.85419922 354.24321289 872.85419922 354.24321289 873.96875 353.44921875 C874.62294922 352.97830811 875.27714844 352.50739746 875.95117188 352.0222168 C878 351 878 351 883 351 C883 335.16 883 319.32 883 303 C874.09 303 865.18 303 856 303 C860.35973715 298.64026285 864.52573597 295.22274983 869.5 291.6875 C870.24636719 291.13771484 870.99273438 290.58792969 871.76171875 290.02148438 C872.85419922 289.24321289 872.85419922 289.24321289 873.96875 288.44921875 C874.62294922 287.97830811 875.27714844 287.50739746 875.95117188 287.0222168 C878.44407177 285.77844036 880.2477795 285.9258688 883 286 C882.98747192 285.15571442 882.97494385 284.31142883 882.96203613 283.44155884 C882.84239889 275.35580408 882.72464851 267.27002429 882.60884857 259.18421364 C882.54929977 255.03050877 882.48910309 250.87681572 882.42724609 246.72314453 C882.13620699 227.14615002 881.94253898 207.57984206 882 188 C892.89 188 903.78 188 915 188 C915 176.12 915 164.24 915 152 C908.4 152 901.8 152 895 152 C895 151.34 895 150.68 895 150 C902.66252705 143.13157064 909.88916637 137.86236862 920.5 138.3125 C922.975 138.539375 925.45 138.76625 928 139 C927.67 132.07 927.34 125.14 927 118 C982.11 118 1037.22 118 1094 118 C1094 125 1094 125 1093 128 C1092.77820215 129.89212737 1092.59385985 131.78884472 1092.4375 133.6875 C1092.31181641 135.17830078 1092.31181641 135.17830078 1092.18359375 136.69921875 C1092.09271484 137.83810547 1092.09271484 137.83810547 1092 139 C1093.02996094 138.86078125 1094.05992188 138.7215625 1095.12109375 138.578125 C1107.89943848 137.41508238 1115.00228737 141.7896658 1124.70922852 149.78491211 C1125.13518311 150.18589111 1125.5611377 150.58687012 1126 151 C1126 151.33 1126 151.66 1126 152 C1119.07 152 1112.14 152 1105 152 C1105 163.88 1105 175.76 1105 188 C1116.22 188 1127.44 188 1139 188 C1139 189.98 1139 191.96 1139 194 C1138.67 194.33 1138.34 194.66 1138 195 C1137.84379445 196.41327947 1137.74943827 197.8335459 1137.68359375 199.25390625 C1137.64169922 200.10791016 1137.59980469 200.96191406 1137.55664062 201.84179688 C1137.49766602 203.18854492 1137.49766602 203.18854492 1137.4375 204.5625 C1137.39431641 205.46419922 1137.35113281 206.36589844 1137.30664062 207.29492188 C1137.20021858 209.52978485 1137.09820012 211.76476308 1137 214 C1137.66 214 1138.32 214 1139 214 C1139 216.31 1139 218.62 1139 221 C1138.34 221 1137.68 221 1137 221 C1137 242.45 1137 263.9 1137 286 C1138.65 286 1140.3 286 1142 286 C1144.37182617 287.23754883 1144.37182617 287.23754883 1146.79296875 288.95703125 C1147.67017578 289.57513672 1148.54738281 290.19324219 1149.45117188 290.83007812 C1150.35416016 291.48427734 1151.25714844 292.13847656 1152.1875 292.8125 C1153.55938477 293.77639648 1153.55938477 293.77639648 1154.95898438 294.75976562 C1161.71340749 299.57011124 1161.71340749 299.57011124 1164 303 C1155.09 303 1146.18 303 1137 303 C1137 318.84 1137 334.68 1137 351 C1138.65 351 1140.3 351 1142 351 C1144.04882812 352.05395508 1144.04882812 352.05395508 1146.03125 353.51953125 C1146.75957031 354.04740234 1147.48789063 354.57527344 1148.23828125 355.11914062 C1148.98464844 355.67794922 1149.73101563 356.23675781 1150.5 356.8125 C1157.73274887 362.9711925 1157.73274887 362.9711925 1166.203125 366.109375 C1169.90953691 365.74934076 1169.90953691 365.74934076 1173 364 C1175.27084316 363.95887218 1177.54382878 364.01752433 1179.8125 364.125 C1181.05644531 364.16882813 1182.30039063 364.21265625 1183.58203125 364.2578125 C1187 365 1187 365 1191 370 C1191.33 353.17 1191.66 336.34 1192 319 C1190.68 319 1189.36 319 1188 319 C1188 317.35 1188 315.7 1188 314 C1187.01 314 1186.02 314 1185 314 C1185 312.35 1185 310.7 1185 309 C1186.65 308.67 1188.3 308.34 1190 308 C1184.48788158 302.89302762 1178.92838996 297.84979028 1173.1875 293 C1172.33542969 292.278125 1171.48335937 291.55625 1170.60546875 290.8125 C1167.80965137 288.86758356 1165.26543228 287.91527445 1162 287 C1161.35712255 283.16567973 1161.15920292 279.81493096 1162 276 C1164.92435209 272.79625613 1168.4885565 271.03962354 1172.3125 269.0625 C1174.44891413 267.86505914 1176.58431849 266.66581506 1178.71875 265.46484375 C1180.32169922 264.58868408 1180.32169922 264.58868408 1181.95703125 263.69482422 C1186.18767041 261.33851027 1190.24734171 258.75313467 1194.3125 256.125 C1205.10212281 249.25655205 1216.00996087 242.5809066 1226.91503906 235.89794922 C1229.80217936 234.12170447 1232.68010863 232.33163752 1235.5546875 230.53515625 C1236.80366821 229.75893921 1236.80366821 229.75893921 1238.07788086 228.96704102 C1239.60799813 228.01572444 1241.13506144 227.0594712 1242.65844727 226.09741211 C1247.66195913 223 1247.66195913 223 1251 223 C1249.60502076 218.52972561 1247.51254724 216.29284615 1244 213.25 C1243.113125 212.47140625 1242.22625 211.6928125 1241.3125 210.890625 C1237.47951862 207.75690373 1234.79098344 207.75033531 1229.875 207.4375 C1228.59367187 207.35371094 1227.31234375 207.26992187 1225.9921875 207.18359375 C1225.00476562 207.12300781 1224.01734375 207.06242188 1223 207 C1222.4375 204.375 1222.4375 204.375 1223 201 C1225.67047139 198.47624426 1228.80965722 196.792934 1232 195 C1232.91749023 194.46971191 1233.83498047 193.93942383 1234.78027344 193.39306641 C1238.89575605 191.04423337 1243.04848943 188.76558347 1247.20361328 186.48779297 C1252.30208429 183.67803812 1257.32682735 180.85154345 1262.1875 177.64453125 C1273.3881547 170.35545278 1281.67706715 168.52298953 1295 170 C1295 168.02 1295 166.04 1295 164 C1298.96 164 1302.92 164 1307 164 C1307 161.36 1307 158.72 1307 156 C1309.31 156 1311.62 156 1314 156 C1314.09216797 155.26998779 1314.18433594 154.53997559 1314.27929688 153.7878418 C1315.7540416 142.79361989 1317.80124472 131.92032929 1319.88623047 121.02807617 C1320.50573835 117.78243644 1321.11432791 114.53486073 1321.72265625 111.28710938 C1322.1165259 109.21862391 1322.51103351 107.1502598 1322.90625 105.08203125 C1323.08651733 104.11336624 1323.26678467 103.14470123 1323.45251465 102.14668274 C1323.62609497 101.25112167 1323.79967529 100.35556061 1323.97851562 99.43286133 C1324.12792603 98.64680008 1324.27733643 97.86073883 1324.43127441 97.05085754 C1325 95 1325 95 1327 92 C1329.96863452 102.77291364 1331.98104286 113.74218677 1334.0715332 124.71118164 C1334.69086132 127.95510599 1335.31878063 131.1972919 1335.94726562 134.43945312 C1336.3442674 136.51031754 1336.74076977 138.58127778 1337.13671875 140.65234375 C1337.41789803 142.09926857 1337.41789803 142.09926857 1337.70475769 143.57542419 C1337.87526138 144.47728958 1338.04576508 145.37915497 1338.22143555 146.30834961 C1338.37227097 147.09600204 1338.52310638 147.88365448 1338.67851257 148.69517517 C1339.02195415 151.15739485 1339.05474869 153.51711522 1339 156 C1341.31 156 1343.62 156 1346 156 C1346 158.64 1346 161.28 1346 164 C1350.29 164 1354.58 164 1359 164 C1359 165.98 1359 167.96 1359 170 C1360.093125 169.83757812 1361.18625 169.67515625 1362.3125 169.5078125 C1377.21951827 168.01301309 1386.43917666 173.97145915 1398.62890625 181.87255859 C1404.15166586 185.35788067 1409.8445006 188.53767441 1415.53421021 191.74047852 C1418.56836003 193.44945305 1421.59530987 195.17077993 1424.62109375 196.89453125 C1425.6361499 197.47050049 1426.65120605 198.04646973 1427.69702148 198.63989258 C1430 200 1430 200 1431 201 C1431.04080783 202.99958364 1431.04254356 205.00045254 1431 207 C1430.06800781 206.93296875 1429.13601562 206.8659375 1428.17578125 206.796875 C1419.65353893 206.69347064 1414.86126954 207.85743819 1408.625 213.875 C1404.51991779 217.89294758 1404.51991779 217.89294758 1402 223 C1402.73847168 223.11754639 1403.47694336 223.23509277 1404.23779297 223.35620117 C1406.99235977 223.99821926 1408.79523216 224.83761121 1411.1953125 226.30078125 C1411.98309082 226.77676758 1412.77086914 227.25275391 1413.58251953 227.74316406 C1414.42153809 228.26104492 1415.26055664 228.77892578 1416.125 229.3125 C1417.01171387 229.85229492 1417.89842773 230.39208984 1418.81201172 230.94824219 C1425.39387544 234.97003784 1431.92172663 239.076768 1438.43017578 243.21606445 C1444.13351882 246.83905632 1449.87307635 250.39922969 1455.6328125 253.93188477 C1457.86786588 255.30464703 1460.0996783 256.68270081 1462.328125 258.06616211 C1467.46110764 261.24874851 1472.60337957 264.3664656 1477.8828125 267.30078125 C1478.77355469 267.81318359 1479.66429688 268.32558594 1480.58203125 268.85351562 C1482.22467293 269.7959529 1483.88564942 270.70742918 1485.56640625 271.58007812 C1487.83787389 272.91016212 1489.39446479 273.90820054 1491 276 C1491.64277324 279.75649246 1491.4729925 283.23065856 1491 287 C1490.11699219 287.23589844 1489.23398438 287.47179687 1488.32421875 287.71484375 C1484.61247241 289.14981972 1482.66154486 290.80827963 1479.8125 293.5625 C1474.41151118 298.65931225 1468.79953657 303.35588368 1463 308 C1464.98 308.33 1466.96 308.66 1469 309 C1469 310.65 1469 312.3 1469 314 C1467.68 314 1466.36 314 1465 314 C1465 315.65 1465 317.3 1465 319 C1464.01 319 1463.02 319 1462 319 C1462.495 335.335 1462.495 335.335 1463 352 C1463.99 349.69 1464.98 347.38 1466 345 C1469.44269895 342.51805424 1472.04397921 341.86133234 1476.1875 341.9375 C1480.07207482 342.36236302 1480.07207482 342.36236302 1483 340 C1487.29608874 339.79542435 1490.86869833 339.83807141 1495 341 C1496.33322478 341.10554696 1497.66657206 341.20955152 1499 341.3125 C1501.9773883 341.66668746 1502.9033313 341.92622652 1505.375 343.8125 C1507 346 1507 346 1507.9375 347.9375 C1508.98963769 350.24738441 1508.98963769 350.24738441 1511.5 352.4375 C1514.00945381 355.00969015 1514.71333591 356.74045098 1516 360 C1518.01317219 361.80348078 1518.01317219 361.80348078 1520 363 C1520.33 361.02 1520.66 359.04 1521 357 C1520.34 357 1519.68 357 1519 357 C1518.29634398 355.4447088 1517.61270622 353.88035173 1516.9375 352.3125 C1516.55464844 351.44238281 1516.17179687 350.57226562 1515.77734375 349.67578125 C1514.88997859 346.62128309 1514.98768873 344.99623788 1516 342 C1517.62626404 340.61767557 1519.2925002 339.28062485 1521 338 C1521.33 337.01 1521.66 336.02 1522 335 C1522.66 335 1523.32 335 1524 335 C1525.01351664 336.65848177 1526.01120795 338.32665961 1527 340 C1528.29579647 341.36984198 1529.61992749 342.7151049 1531 344 C1530.54554036 345.41791408 1530.08625056 346.83428046 1529.625 348.25 C1529.36976563 349.03890625 1529.11453125 349.8278125 1528.8515625 350.640625 C1528 353 1528 353 1526.97265625 354.71289062 C1525.64359416 357.83805469 1525.67211931 360.56330722 1525.5859375 363.953125 C1525.55688828 364.94345734 1525.55688828 364.94345734 1525.5272522 365.95379639 C1525.46770651 368.05240153 1525.42117278 370.15106228 1525.375 372.25 C1525.33679706 373.6771066 1525.29774398 375.10419072 1525.2578125 376.53125 C1525.1620267 380.02062691 1525.07790358 383.51017286 1525 387 C1525.61746094 387.15339844 1526.23492188 387.30679687 1526.87109375 387.46484375 C1528.27176783 387.8169398 1529.66913937 388.18249255 1531.0625 388.5625 C1533.15667366 389.11013044 1533.15667366 389.11013044 1536 389 C1535.89253282 376.03064904 1535.77990628 363.06135419 1535.66066074 350.09210587 C1535.60545536 344.07021161 1535.55203907 338.04831247 1535.50268555 332.02636719 C1535.45500697 326.2167714 1535.40266273 320.40723481 1535.34705925 314.59770966 C1535.32665157 312.37932557 1535.30793586 310.16092526 1535.29092598 307.94251251 C1535.266847 304.83954497 1535.23679697 301.73668916 1535.20532227 298.63378906 C1535.19668907 297.25274994 1535.19668907 297.25274994 1535.18788147 295.84381104 C1535.17809265 294.99689697 1535.16830383 294.14998291 1535.15821838 293.27740479 C1535.15176583 292.54365757 1535.14531328 291.80991035 1535.1386652 291.05392838 C1535.03692618 288.64723297 1535.03692618 288.64723297 1534 285 C1530.7 285 1527.4 285 1524 285 C1524 282.69 1524 280.38 1524 278 C1527.3 278 1530.6 278 1534 278 C1533.505 275.525 1533.505 275.525 1533 273 C1532.34 273 1531.68 273 1531 273 C1531 272.01 1531 271.02 1531 270 C1530.34 270 1529.68 270 1529 270 C1529 268.68 1529 267.36 1529 266 C1528.01 266 1527.02 266 1526 266 C1526 265.01 1526 264.02 1526 263 C1525.34 263 1524.68 263 1524 263 C1524 260.69 1524 258.38 1524 256 C1521.36 256 1518.72 256 1516 256 C1516 254.35 1516 252.7 1516 251 C1513.03 251 1510.06 251 1507 251 C1507 245.72 1507 240.44 1507 235 C1519.625 234.875 1519.625 234.875 1523 236 C1522.91621094 235.40832031 1522.83242187 234.81664062 1522.74609375 234.20703125 C1522.19110576 229.90060543 1521.76773348 226.24447356 1523 222 C1522.01 221.67 1521.02 221.34 1520 221 C1518.68279144 214.77319588 1518.68279144 214.77319588 1520 211.5625 C1522 210 1522 210 1525.5 209.5625 C1529 210 1529 210 1530.9375 211.0625 C1532.6140629 214.11976176 1532.36528977 216.5906288 1532 220 C1531.01979625 221.0194119 1530.02196992 222.02246356 1529 223 C1529.28718326 224.6752357 1529.63128912 226.34080104 1530 228 C1529.81414461 230.70243776 1529.40910527 233.3180877 1529 236 C1529.63897217 235.98839844 1530.27794434 235.97679687 1530.9362793 235.96484375 C1543.23969007 235.85081959 1555.52299417 236.4845862 1567.8125 237 C1570.16209942 237.09659662 1572.51170874 237.19295285 1574.86132812 237.2890625 C1580.57433588 237.52326816 1586.28721402 237.76044879 1592 238 C1591.91621094 237.25234375 1591.83242187 236.5046875 1591.74609375 235.734375 C1591.64425781 234.74953125 1591.54242187 233.7646875 1591.4375 232.75 C1591.33308594 231.77546875 1591.22867188 230.8009375 1591.12109375 229.796875 C1591.00955091 227.22059517 1591.3756482 225.4583852 1592 223 C1591.525625 222.566875 1591.05125 222.13375 1590.5625 221.6875 C1589 220 1589 220 1588.625 216.5 C1589 213 1589 213 1590.0625 211.0625 C1593.15493758 209.36664713 1595.55514741 209.56939343 1599 210 C1601 211.5625 1601 211.5625 1602 214 C1601.6875 217.75 1601.6875 217.75 1601 221 C1600.01 221.33 1599.02 221.66 1598 222 C1598.185625 222.78375 1598.37125 223.5675 1598.5625 224.375 C1599 228 1599 228 1598 238 C1605.59 238 1613.18 238 1621 238 C1621 234.7 1621 231.4 1621 228 C1620.34 228 1619.68 228 1619 228 C1619 226.35 1619 224.7 1619 223 C1619.66 223 1620.32 223 1621 223 C1621 222.34 1621 221.68 1621 221 C1620.34 221 1619.68 221 1619 221 C1619 219.35 1619 217.7 1619 216 C1619.99 216 1620.98 216 1622 216 C1622 215.34 1622 214.68 1622 214 C1621.21625 213.7525 1620.4325 213.505 1619.625 213.25 C1617 212 1617 212 1615.625 210.375 C1614.66994445 206.74578892 1614.88468362 203.58075259 1616 200 C1618.13560405 197.41138903 1619.63614862 196.28930181 1622.93359375 195.58984375 C1626.86979124 195.2996515 1628.65111691 195.76741127 1632 198 C1634.23387392 201.35081088 1634.67955618 203.12710109 1634.43359375 207.0625 C1633.74974219 210.11826913 1632.24257259 211.88934344 1630 214 C1629.34 214 1628.68 214 1628 214 C1628 214.66 1628 215.32 1628 216 C1628.99 216 1629.98 216 1631 216 C1631 217.65 1631 219.3 1631 221 C1630.34 221 1629.68 221 1629 221 C1629 221.66 1629 222.32 1629 223 C1629.66 223 1630.32 223 1631 223 C1631 224.65 1631 226.3 1631 228 C1630.34 228 1629.68 228 1629 228 C1629 231.3 1629 234.6 1629 238 C1636.26 238 1643.52 238 1651 238 C1650.814375 236.2675 1650.62875 234.535 1650.4375 232.75 C1650.05026262 229.13578445 1650.11241441 226.49486827 1651 223 C1650.525625 222.566875 1650.05125 222.13375 1649.5625 221.6875 C1648 220 1648 220 1647.625 216.5 C1648 213 1648 213 1649.0625 211.0625 C1652.11976176 209.3859371 1654.5906288 209.63471023 1658 210 C1659.9375 211.125 1659.9375 211.125 1661 213 C1661.42478586 217.07794425 1661.31282587 218.53076119 1659 222 C1658.34 222 1657.68 222 1657 222 C1657 222.66 1657 223.32 1657 224 C1657.66 224 1658.32 224 1659 224 C1658.814375 224.5775 1658.62875 225.155 1658.4375 225.75 C1657.95976454 228.20692525 1658.24270636 229.64397534 1659 232 C1658.34 232 1657.68 232 1657 232 C1657 233.98 1657 235.96 1657 238 C1657.9150959 237.96241577 1657.9150959 237.96241577 1658.84867859 237.92407227 C1665.25747289 237.66137801 1671.66641044 237.40241074 1678.07543945 237.14550781 C1680.46024297 237.04943867 1682.84500972 236.95245187 1685.22973633 236.85449219 C1688.67780199 236.71301828 1692.12599093 236.57495824 1695.57421875 236.4375 C1696.62268478 236.39375244 1697.67115082 236.35000488 1698.75138855 236.30493164 C1706.170722 236.01369732 1713.5753469 235.95255422 1721 236 C1720.87057007 235.02208496 1720.87057007 235.02208496 1720.73852539 234.02441406 C1719.87446823 227.49598217 1719.87446823 227.49598217 1720.55859375 224.79296875 C1720.70425781 224.20128906 1720.84992187 223.60960937 1721 223 C1720.02246356 221.97803008 1719.0194119 220.98020375 1718 220 C1717.03902799 217.11708398 1716.77378923 215.62642982 1717.8125 212.75 C1719 211 1719 211 1721 210 C1725.05142119 209.74139865 1726.54337669 209.69558446 1730 212 C1730.9375 214.8125 1730.9375 214.8125 1731 218 C1729.68678142 219.6825613 1728.35386936 221.34997172 1727 223 C1727.27802838 225.39388923 1727.27802838 225.39388923 1728 228 C1727.81846366 230.70287447 1727.40912183 233.31797914 1727 236 C1727.66 235.67 1728.32 235.34 1729 235 C1733.66908861 234.86003931 1738.32798622 234.95752715 1743 235 C1743 240.28 1743 245.56 1743 251 C1740.03 251 1737.06 251 1734 251 C1734 252.65 1734 254.3 1734 256 C1731.03 256 1728.06 256 1725 256 C1725.020625 257.093125 1725.04125 258.18625 1725.0625 259.3125 C1725 263 1725 263 1724 266 C1723.01 266 1722.02 266 1721 266 C1720.855625 266.598125 1720.71125 267.19625 1720.5625 267.8125 C1720.1127561 269.56150404 1719.57107659 271.28677023 1719 273 C1718.34 273 1717.68 273 1717 273 C1717 273.99 1717 274.98 1717 276 C1716.34 276 1715.68 276 1715 276 C1715 276.66 1715 277.32 1715 278 C1718.3 278 1721.6 278 1725 278 C1725 280.31 1725 282.62 1725 285 C1721.7 285 1718.4 285 1715 285 C1714.67 306.45 1714.34 327.9 1714 350 C1715.32 350.66 1716.64 351.32 1718 352 C1719.02611949 353.65071396 1720.02308143 355.31970006 1721 357 C1721.86625 357.845625 1722.7325 358.69125 1723.625 359.5625 C1726.10042293 362.10306564 1726.19694124 362.78776496 1727 366 C1728.2684375 367.1446875 1728.2684375 367.1446875 1729.5625 368.3125 C1732 371 1732 371 1732.5625 374.5 C1731.90507747 378.59062907 1730.65272688 379.89251994 1728 383 C1727.15651163 385.05301887 1726.4614534 387.10968866 1725.80859375 389.23046875 C1725 391 1725 391 1722 393 C1719.67891331 393.70812814 1717.34622853 394.38024152 1715 395 C1715 396.98 1715 398.96 1715 401 C1715.66 401 1716.32 401 1717 401 C1717 405.62 1717 410.24 1717 415 C1725.91 415 1734.82 415 1744 415 C1745.0597148 426.06813237 1744.63118547 435.6386616 1744 447 C952.66 447 161.32 447 -654 447 C-654 436.44 -654 425.88 -654 415 C-645.09 415 -636.18 415 -627 415 C-627 412.36 -627 409.72 -627 407 C-628.13888672 406.87044922 -628.13888672 406.87044922 -629.30078125 406.73828125 C-637.31693717 405.60499851 -637.31693717 405.60499851 -640.1875 403.0625 C-641.48869207 398.15800683 -642.33401532 391.66803063 -640 387 C-639.34 387 -638.68 387 -638 387 C-637.87625 386.21625 -637.7525 385.4325 -637.625 384.625 C-637 382 -637 382 -635 380 C-633.33382885 379.95936168 -631.66611905 379.957279 -630 380 C-629.67 379.67 -629.34 379.34 -629 379 C-627.33382885 378.95936168 -625.66611905 378.957279 -624 379 C-623.89835037 377.99381119 -623.79670074 376.98762238 -623.69197083 375.95094299 C-622.71085221 366.23958541 -621.7294172 356.52825985 -620.74776173 346.81695652 C-620.12449549 340.6506928 -619.50166265 334.48438547 -618.87912178 328.31804848 C-615.08795826 290.77008148 -615.08795826 290.77008148 -613.32421875 273.77734375 C-613.20625443 272.63737442 -613.0882901 271.49740509 -612.9667511 270.32289124 C-612.45206002 265.34962872 -611.93431868 260.3767369 -611.40942383 255.40454102 C-610.31812308 244.94517678 -609.51702076 234.50368485 -609 224 C-609.66 224 -610.32 224 -611 224 C-611 223.34 -611 222.68 -611 222 C-611.66 222 -612.32 222 -613 222 C-613 221.01 -613 220.02 -613 219 C-611.68 219 -610.36 219 -609 219 C-609 214.05 -609 209.1 -609 204 C-611.31 204 -613.62 204 -616 204 C-616.495 201.525 -616.495 201.525 -617 199 C-613.7 199 -610.4 199 -607 199 C-606.95875 197.700625 -606.9175 196.40125 -606.875 195.0625 C-606.20667102 189.31848333 -603.90017662 185.23193438 -600 181 C-598.49162967 179.99007038 -596.94803587 179.0309233 -595.375 178.125 C-590.38455366 175.16271144 -589.18433573 171.61445245 -587.55859375 166.1953125 C-587.37425781 165.47085938 -587.18992187 164.74640625 -587 164 C-585.35 164 -583.7 164 -582 164 C-581.74347656 164.79664063 -581.48695313 165.59328125 -581.22265625 166.4140625 C-578.68651065 173.43329376 -576.62094766 176.89419159 -570.15625 180.58984375 C-566.53957745 182.95509518 -564.58311014 186.02431617 -563 190 C-562.36702606 193.06016727 -562.14713531 195.8611133 -562 199 C-558.7 199 -555.4 199 -552 199 C-552.33 200.65 -552.66 202.3 -553 204 C-555.31 204 -557.62 204 -560 204 C-560 208.95 -560 213.9 -560 219 C-558.68 219 -557.36 219 -556 219 C-556 219.99 -556 220.98 -556 222 C-556.66 222 -557.32 222 -558 222 C-560.51954097 232.97100602 -558.72027026 244.54553987 -557.53125 255.60913086 C-557.37303362 257.12832686 -557.2154178 258.6475855 -557.05834961 260.16690063 C-556.72174667 263.41051081 -556.38099284 266.65364681 -556.03686523 269.89646721 C-555.49240596 275.02741011 -554.9575241 280.15932511 -554.42382812 285.29139709 C-553.57893163 293.40523557 -552.72777985 301.51840331 -551.87387848 309.6312986 C-550.34323579 324.17477001 -548.82096313 338.71911599 -547.30452728 353.26407534 C-546.77260769 358.36329308 -546.23717314 363.46212586 -545.69885254 368.56067169 C-545.36484558 371.72923504 -545.03333251 374.89805594 -544.7024231 378.06694412 C-544.54871731 379.53359027 -544.39394184 381.00012478 -544.23800659 382.46653557 C-544.02496092 384.47124018 -543.81609287 386.47638743 -543.60742188 388.48155212 C-543.48943237 389.60216002 -543.37144287 390.72276793 -543.24987793 391.87733364 C-543.00531282 394.93360687 -542.95512559 397.93547369 -543 401 C-542.01 400.67 -541.02 400.34 -540 400 C-536.68899619 399.77252646 -533.38438829 399.60772804 -530.06835938 399.48242188 C-525.70322228 399.26600254 -522.09289004 398.49213707 -518 397 C-515.125 396.875 -515.125 396.875 -513 397 C-513 396.34 -513 395.68 -513 395 C-511.35 395 -509.7 395 -508 395 C-508 394.01 -508 393.02 -508 392 C-512.62 392 -517.24 392 -522 392 C-521.67 390.35 -521.34 388.7 -521 387 C-518.3125 385.7265625 -518.3125 385.7265625 -515 384.625 C-511.64695688 383.296846 -511.64695688 383.296846 -509 381 C-507.60822366 375.9039574 -507.65324906 371.24127379 -508 366 C-508.66 366 -509.32 366 -510 366 C-510 364.35 -510 362.7 -510 361 C-509.34 361 -508.68 361 -508 361 C-508 354.07 -508 347.14 -508 340 C-508.66 340 -509.32 340 -510 340 C-510 338.68 -510 337.36 -510 336 C-508.68 336 -507.36 336 -506 336 C-506.33 332.7 -506.66 329.4 -507 326 C-505.35 326 -503.7 326 -502 326 C-502.309375 325.40574219 -502.61875 324.81148438 -502.9375 324.19921875 C-504.1527206 321.32647299 -504.84504135 319.1284895 -505 316 C-503.3118151 312.91589994 -501.27439282 310.45449211 -499.01953125 307.76171875 C-496.09596594 303.76372905 -495.42145828 299.85730666 -495 295 C-494.34 295 -493.68 295 -493 295 C-493 293.02 -493 291.04 -493 289 C-492.01 289 -491.02 289 -490 289 C-490 290.98 -490 292.96 -490 295 C-489.34 295 -488.68 295 -488 295 C-487.93683594 295.60585938 -487.87367188 296.21171875 -487.80859375 296.8359375 C-487.01322403 302.27794082 -485.73837809 305.71532004 -482.3125 310.0625 C-479.62866921 313.57981862 -478.50858086 315.54873968 -479 320 C-479.4499985 322.24999251 -479.97295391 323.94590782 -481 326 C-479.35 326 -477.7 326 -476 326 C-476.33 329.3 -476.66 332.6 -477 336 C-475.68 336 -474.36 336 -473 336 C-473 337.32 -473 338.64 -473 340 C-473.66 340 -474.32 340 -475 340 C-475 346.93 -475 353.86 -475 361 C-474.34 361 -473.68 361 -473 361 C-473 362.65 -473 364.3 -473 366 C-473.66 366 -474.32 366 -475 366 C-475 371.94 -475 377.88 -475 384 C-471.3441622 385.46233512 -467.7372512 386.78322054 -464 388 C-464.0721875 386.98164063 -464.144375 385.96328125 -464.21875 384.9140625 C-464.93149167 374.26105199 -465.11236468 363.67464436 -465 353 C-464.01 353 -463.02 353 -462 353 C-462.33 350.69 -462.66 348.38 -463 346 C-462.01 346 -461.02 346 -460 346 C-460.45375 345.01 -460.9075 344.02 -461.375 343 C-461.9453125 341.0546875 -461.9453125 341.0546875 -462 339 C-460.71586035 336.81253453 -459.16663722 335.02587614 -457.53515625 333.0859375 C-452.93329069 326.83302094 -453.4784842 317.44168845 -453 310 C-454.65 310 -456.3 310 -458 310 C-458 308.35 -458 306.7 -458 305 C-458.66 305 -459.32 305 -460 305 C-460 302.69 -460 300.38 -460 298 C-457.69 298 -455.38 298 -453 298 C-453.10991566 294.89510601 -453.24053415 291.79142006 -453.375 288.6875 C-453.42140625 287.36588867 -453.42140625 287.36588867 -453.46875 286.01757812 C-453.52675781 284.74624023 -453.52675781 284.74624023 -453.5859375 283.44921875 C-453.6173584 282.66893311 -453.6487793 281.88864746 -453.68115234 281.0847168 C-453.89587889 278.69844232 -453.89587889 278.69844232 -456 276 C-456 274.68 -456 273.36 -456 272 C-449.36141777 271.97467746 -442.72284797 271.95714472 -436.08422852 271.94506836 C-433.8251092 271.94003474 -431.56599314 271.93320738 -429.30688477 271.92456055 C-426.06265457 271.91245255 -422.81846739 271.90676201 -419.57421875 271.90234375 C-418.05534309 271.89460182 -418.05534309 271.89460182 -416.50578308 271.88670349 C-415.56503433 271.88662796 -414.62428558 271.88655243 -413.6550293 271.88647461 C-412.82674118 271.884254 -411.99845306 271.88203339 -411.14506531 271.87974548 C-409 272 -409 272 -406 273 C-406 260.79 -406 248.58 -406 236 C-407.32 236 -408.64 236 -410 236 C-410 232.37 -410 228.74 -410 225 C-406.04 225 -402.08 225 -398 225 C-398 219.39 -398 213.78 -398 208 C-398.99 208 -399.98 208 -401 208 C-401.94319054 185.62542431 -399.01047974 161.8927258 -384.1875 144.1875 C-380.31783362 140.04196145 -376.02203169 136.65688399 -371 134 C-370.34 134 -369.68 134 -369 134 C-369 132.68 -369 131.36 -369 130 C-368.34 130 -367.68 130 -367 130 C-367 127.03 -367 124.06 -367 121 C-367.66 121 -368.32 121 -369 121 C-369 119.68 -369 118.36 -369 117 C-368.34 117 -367.68 117 -367 117 C-367 114.03 -367 111.06 -367 108 C-365.68 108 -364.36 108 -363 108 C-363 104.7 -363 101.4 -363 98 C-362.01 98 -361.02 98 -360 98 C-360 95.03 -360 92.06 -360 89 C-358.68 89 -357.36 89 -356 89 C-356 91.97 -356 94.94 -356 98 C-355.34 98 -354.68 98 -354 98 C-354 101.3 -354 104.6 -354 108 C-352.35 108 -350.7 108 -349 108 C-349 110.97 -349 113.94 -349 117 C-348.34 117 -347.68 117 -347 117 C-347 118.32 -347 119.64 -347 121 C-347.66 121 -348.32 121 -349 121 C-349 123.97 -349 126.94 -349 130 C-348.34 130 -347.68 130 -347 130 C-347 131.32 -347 132.64 -347 134 C-346.34 134.20625 -345.68 134.4125 -345 134.625 C-333.07073315 140.09258064 -325.49940202 151.05249874 -320.98828125 163.09765625 C-320.66214844 164.05542969 -320.33601563 165.01320312 -320 166 C-319.70480469 166.82371094 -319.40960938 167.64742187 -319.10546875 168.49609375 C-315.19564597 180.84188883 -314.46850649 195.12604614 -315 208 C-315.99 208 -316.98 208 -318 208 C-318 213.61 -318 219.22 -318 225 C-314.04 225 -310.08 225 -306 225 C-306 228.63 -306 232.26 -306 236 C-307.32 236 -308.64 236 -310 236 C-310 248.21 -310 260.42 -310 273 C-309.01 272.67 -308.02 272.34 -307 272 C-305.45029552 271.91312201 -303.89710293 271.8823134 -302.3449707 271.88647461 C-301.40422195 271.88655014 -300.46347321 271.88662567 -299.49421692 271.88670349 C-298.48163315 271.89186478 -297.46904938 271.89702606 -296.42578125 271.90234375 C-294.86732735 271.90446617 -294.86732735 271.90446617 -293.27738953 271.90663147 C-289.95573052 271.91223344 -286.63413867 271.92478628 -283.3125 271.9375 C-281.06184993 271.94251475 -278.81119881 271.9470777 -276.56054688 271.95117188 C-271.04034163 271.96220351 -265.52017561 271.97894357 -260 272 C-260 273.32 -260 274.64 -260 276 C-260.66 276 -261.32 276 -262 276 C-262.33 283.26 -262.66 290.52 -263 298 C-260.69 298 -258.38 298 -256 298 C-256 300.31 -256 302.62 -256 305 C-256.66 305 -257.32 305 -258 305 C-258 306.65 -258 308.3 -258 310 C-259.65 310 -261.3 310 -263 310 C-262.53240364 323.70738394 -262.53240364 323.70738394 -256.75 335.6875 C-254.68964233 338.41011549 -254.84067447 339.04926588 -255.25 342.3125 C-255.4975 343.529375 -255.745 344.74625 -256 346 C-255.01 346 -254.02 346 -253 346 C-253.33 348.31 -253.66 350.62 -254 353 C-253.01 353 -252.02 353 -251 353 C-250.8936311 365.04750524 -250.85275914 376.99494383 -252 389 C-248.7 389 -245.4 389 -242 389 C-242.03029297 388.28271729 -242.06058594 387.56543457 -242.09179688 386.82641602 C-242.79222064 369.87481395 -243.14548472 352.96575603 -243 336 C-241.68 336 -240.36 336 -239 336 C-239.33 332.7 -239.66 329.4 -240 326 C-238.35 326 -236.7 326 -235 326 C-235.48146484 325.14341797 -235.48146484 325.14341797 -235.97265625 324.26953125 C-237.27901943 321.32436121 -237.92134815 319.24128399 -238 316 C-236.35277428 312.94917796 -234.55932253 310.41288679 -232.43945312 307.69433594 C-228.94791025 303.18107429 -228.09837377 300.60730482 -228 295 C-227.38761101 292.98271862 -226.74023321 290.97395523 -226 289 C-225.34 289 -224.68 289 -224 289 C-223.67 290.98 -223.34 292.96 -223 295 C-222.34 295 -221.68 295 -221 295 C-220.90525391 296.03447266 -220.90525391 296.03447266 -220.80859375 297.08984375 C-220.07135697 302.74716601 -219.12062478 306.3483618 -215.3125 310.6875 C-212.06914971 314.4277611 -212.06914971 314.4277611 -211.73046875 317.23046875 C-212.11379952 320.28044832 -213.03029293 323.09087878 -214 326 C-212.35 326 -210.7 326 -209 326 C-209.33 329.3 -209.66 332.6 -210 336 C-208.68 336 -207.36 336 -206 336 C-206 337.32 -206 338.64 -206 340 C-206.66 340 -207.32 340 -208 340 C-208 346.93 -208 353.86 -208 361 C-207.34 361 -206.68 361 -206 361 C-206 362.65 -206 364.3 -206 366 C-206.66 366 -207.32 366 -208 366 C-208 375.57 -208 385.14 -208 395 C-206.68 395 -205.36 395 -204 395 C-203.67 395.99 -203.34 396.98 -203 398 C-201.35 398.33 -199.7 398.66 -198 399 C-197.95101563 398.30132812 -197.90203125 397.60265625 -197.8515625 396.8828125 C-197.73941406 395.51769531 -197.73941406 395.51769531 -197.625 394.125 C-197.55539062 393.22007812 -197.48578125 392.31515625 -197.4140625 391.3828125 C-197 389 -197 389 -195 387 C-194.690625 385.7625 -194.690625 385.7625 -194.375 384.5 C-193 382 -193 382 -189.4375 380.6875 C-184.06722867 379.67018084 -178.38365844 378.72096376 -173.4375 381.375 C-172 383 -172 383 -172 385 C-171.01 385.33 -170.02 385.66 -169 386 C-166.44506845 389.13891591 -165.09240023 391.199198 -164.625 395.25 C-165 398 -165 398 -167 400 C-167.185625 400.804375 -167.37125 401.60875 -167.5625 402.4375 C-169.61502352 406.09634627 -172.19886361 406.40535381 -176.1015625 407.51953125 C-176.72804688 407.67808594 -177.35453125 407.83664062 -178 408 C-178 410.31 -178 412.62 -178 415 C-166.12 415 -154.24 415 -142 415 C-142 412.69 -142 410.38 -142 408 C-145.48794041 406.95361788 -148.69665316 406.04006468 -152.3125 405.5625 C-155 405 -155 405 -157 402 C-158.40783991 395.64712241 -159.04020414 389.6270849 -155.75 383.8125 C-152.40346953 379.5411672 -148.92699895 378.69280838 -143.68359375 378.0234375 C-141 378 -141 378 -136 379 C-136 369.76 -136 360.52 -136 351 C-137.32 351 -138.64 351 -140 351 C-140 349.02 -140 347.04 -140 345 C-138.68 345 -137.36 345 -136 345 C-136 342.69 -136 340.38 -136 338 C-137.32 338 -138.64 338 -140 338 C-140 337.01 -140 336.02 -140 335 C-158.81 335 -177.62 335 -197 335 C-197 334.34 -197 333.68 -197 333 C-196.44691162 332.73598389 -195.89382324 332.47196777 -195.32397461 332.19995117 C-181.82630974 325.75117269 -168.36170838 319.2374048 -154.91763306 312.67779541 C-149.11344918 309.84651679 -143.3071496 307.01957931 -137.50097656 304.19238281 C-134.68445928 302.82089118 -131.86865595 301.44795773 -129.05371094 300.07324219 C-125.78858422 298.48051928 -122.5200563 296.89507021 -119.25 295.3125 C-117.86820557 294.63562134 -117.86820557 294.63562134 -116.45849609 293.94506836 C-115.2183374 293.34770874 -115.2183374 293.34770874 -113.953125 292.73828125 C-113.25348633 292.39837158 -112.55384766 292.05846191 -111.83300781 291.70825195 C-110 291 -110 291 -107 291 C-107 274.5 -107 258 -107 241 C-107.99 241 -108.98 241 -110 241 C-110 239.35 -110 237.7 -110 236 C-109.01 236 -108.02 236 -107 236 C-107 234.02 -107 232.04 -107 230 C-107.99 230 -108.98 230 -110 230 C-110 229.34 -110 228.68 -110 228 C-124.85 228 -139.7 228 -155 228 C-152.11815294 225.11815294 -150.20769422 223.9543383 -146.59375 222.2421875 C-145.47363525 221.70674316 -144.35352051 221.17129883 -143.19946289 220.61962891 C-141.96643093 220.03782659 -140.73327308 219.45629102 -139.5 218.875 C-136.88298457 217.63257896 -134.26766991 216.38659726 -131.65234375 215.140625 C-130.96393906 214.8134549 -130.27553436 214.48628479 -129.56626892 214.14920044 C-124.18521601 211.58505986 -118.84116777 208.95076082 -113.50390625 206.296875 C-111.13285025 205.12363297 -108.76132236 203.95135026 -106.38964844 202.77935791 C-104.84389669 202.01260374 -103.30008938 201.24191653 -101.75830078 200.46722412 C-99.58495264 199.37613698 -97.40476592 198.29999466 -95.22265625 197.2265625 C-94.58002335 196.89912048 -93.93739044 196.57167847 -93.27528381 196.23431396 C-88.97837058 194.14369856 -87.08424825 194 -82 194 C-82 181.13 -82 168.26 -82 155 C-82.66 155 -83.32 155 -84 155 C-84 153.68 -84 152.36 -84 151 C-83.34 151 -82.68 151 -82 151 C-82 149.68 -82 148.36 -82 147 C-82.66 147 -83.32 147 -84 147 C-84 146.34 -84 145.68 -84 145 C-95.55 145 -107.1 145 -119 145 C-116.33973931 142.33973931 -114.89852405 141.28649929 -111.625 139.7578125 C-110.29094116 139.12709839 -110.29094116 139.12709839 -108.92993164 138.48364258 C-107.9630542 138.03529053 -106.99617676 137.58693848 -106 137.125 C-99.27814273 133.99572071 -92.60579016 130.82480914 -86.03515625 127.38671875 C-63.26384628 115.62347624 -63.26384628 115.62347624 -50 118 C-50 117.34 -50 116.68 -50 116 C-43.4 116 -36.8 116 -30 116 C-30 112.04 -30 108.08 -30 104 C-26.37 104 -22.74 104 -19 104 C-18.87142105 102.5513858 -18.7428421 101.10277161 -18.61036682 99.61026001 C-18.08911997 94.41983176 -17.23392927 89.35274651 -16.23413086 84.23583984 C-15.97056541 82.858396 -15.97056541 82.858396 -15.70167542 81.453125 C-15.12691747 78.45490736 -14.5459396 75.4579326 -13.96484375 72.4609375 C-13.56232183 70.36780097 -13.16019269 68.27458888 -12.75843811 66.18130493 C-11.70527769 60.69961912 -10.64681846 55.21896971 -9.58721924 49.73852539 C-8.50478821 44.13489841 -7.42741755 38.53029888 -6.34960938 32.92578125 C-4.23799967 21.94956792 -2.12078584 10.97444377 0 0 Z M493 33 C493.33 34.32 493.66 35.64 494 37 C494.33 36.01 494.66 35.02 495 34 C494.34 33.67 493.68 33.34 493 33 Z M492 36 C493 39 493 39 493 39 Z M495 38 C496 40 496 40 496 40 Z M491 40 C492 43 492 43 492 43 Z M496 41 C497 44 497 44 497 44 Z M490 43 C491 46 491 46 491 46 Z M497 45 C498 48 498 48 498 48 Z M489 47 C490 50 490 50 490 50 Z M498 49 C499 51 499 51 499 51 Z M488 51 C489 53 489 53 489 53 Z M499 52 C500 55 500 55 500 55 Z M487 54 C488 57 488 57 488 57 Z M500 56 C501 58 501 58 501 58 Z M486 58 C487 60 487 60 487 60 Z M501 59 C502 62 502 62 502 62 Z M485 61 C486 64 486 64 486 64 Z M502 63 C503 66 503 66 503 66 Z M484 65 C485 68 485 68 485 68 Z M503 66 C504 69 504 69 504 69 Z M483 69 C484 71 484 71 484 71 Z M504 70 C505 73 505 73 505 73 Z M500 118 C500 119.32 500 120.64 500 122 C500.66 122 501.32 122 502 122 C501.34 120.68 500.68 119.36 500 118 Z M486 119 C485.67 119.99 485.34 120.98 485 122 C485.66 122 486.32 122 487 122 C486.67 121.01 486.34 120.02 486 119 Z M465 136 C461.7284849 138.18101007 460.90963762 139.63903779 459 143 C455.43822844 148.56526807 455.43822844 148.56526807 453.53125 150.45703125 C451.4492065 152.55500875 449.92344151 154.93140929 448.28125 157.37890625 C447 159 447 159 444 161 C443.31731862 162.32520503 442.6492959 163.65812182 442 165 C441.34 165.33 440.68 165.66 440 166 C438.98391582 167.65690999 437.9867136 169.32543317 437 171 C435.69555558 172.7304928 434.36128868 174.43885834 433 176.125 C432.319375 176.97320312 431.63875 177.82140625 430.9375 178.6953125 C429.3592286 180.57269178 427.75062534 182.28893682 426 184 C423.65049603 186.76412232 421.35339575 189.56609272 419.0625 192.37890625 C414.80870003 197.59740729 410.52554153 202.78890278 406.1875 207.9375 C405.73165527 208.48092041 405.27581055 209.02434082 404.80615234 209.58422852 C402.9192103 211.81624118 401.01654491 213.983518 398.9453125 216.046875 C396.66596734 218.33537416 394.69929115 220.7861477 392.6875 223.3125 C389.5204748 227.22074386 386.27459683 230.84862088 382.6640625 234.34375 C380.31125312 236.68551333 378.1752333 239.19457261 376.0078125 241.70703125 C373.12690258 244.99709764 370.16181112 248.20863213 367.19726562 251.4230957 C364.17365068 254.70541844 361.20312337 258.02879878 358.25 261.375 C355.1780619 264.81579088 351.98816666 267.79119878 348.421875 270.703125 C346.43271419 272.51741453 345.31531193 274.66831068 344 277 C341.47815482 279.72631912 338.88322113 282.09488284 336 284.4375 C332.43118225 287.34028075 332.43118225 287.34028075 328 293 C333.94 297.29 339.88 301.58 346 306 C347.65 304.35 349.3 302.7 351 301 C353.05435691 299.21955735 355.13654839 297.47968365 357.23046875 295.74609375 C359.06713778 294.12520734 359.06713778 294.12520734 359.92944336 292.109375 C361.04017848 289.9208342 362.27663557 288.33915724 363.8984375 286.50390625 C364.46046875 285.86259766 365.0225 285.22128906 365.6015625 284.56054688 C366.47941406 283.57151367 366.47941406 283.57151367 367.375 282.5625 C368.52951828 281.25207021 369.6831832 279.94088803 370.8359375 278.62890625 C371.3822583 278.00773926 371.9285791 277.38657227 372.49145508 276.74658203 C374.39086739 274.54745666 376.18947178 272.27243975 378 270 C379.0209375 269.01 379.0209375 269.01 380.0625 268 C382.15295435 265.84211164 383.47045393 263.5724184 385 261 C385.66 260.67 386.32 260.34 387 260 C387.98407376 258.26146969 388.96591991 256.52154581 389.92578125 254.76953125 C391.30734824 252.49371363 393.09311929 250.84536843 395 249 C396.02304948 247.34738161 397.02616054 245.68208635 398 244 C398.66 243.34 399.32 242.68 400 242 C401.10624749 240.30641493 402.18607668 238.59548861 403.25 236.875 C405.84079826 232.75546985 408.55088142 228.83645681 411.51953125 224.984375 C413.7165947 222.0394984 415.70548553 218.96519168 417.703125 215.8828125 C419 214 419 214 421 212 C421.88194347 210.60045691 422.73132791 209.18027903 423.5625 207.75 C426.47757407 202.81789424 429.55011986 198.0068474 432.66650391 193.20117188 C435.49275428 188.82798447 438.19203906 184.39318635 440.80859375 179.890625 C442 178 442 178 444 176 C445.03126816 174.18407129 446.02736899 172.34799892 447 170.5 C449.77777778 165.22222222 449.77777778 165.22222222 452 163 C452.86878522 161.35153573 453.69810696 159.68201955 454.5 158 C455.84307477 155.18281878 456.78621234 153.21378766 459 151 C460.08592737 149.04476807 461.12187646 147.06147807 462.125 145.0625 C462.66382813 144.00160156 463.20265625 142.94070312 463.7578125 141.84765625 C465.19991462 139.05950436 465.19991462 139.05950436 465 136 Z M522 136 C523 138 523 138 523 138 Z M523 138 C524.83491188 142.74018901 526.91941459 147.36413251 529 152 C529.66 152 530.32 152 531 152 C532.12687128 154.7366874 533.1159878 157.40209104 533.9375 160.25 C534.288125 161.1575 534.63875 162.065 535 163 C535.99 163.33 536.98 163.66 538 164 C538.70626239 165.98636298 539.36893571 167.98848259 540 170 C540.96873032 171.35622245 541.96434215 172.69417053 543 174 C543.33 174.99 543.66 175.98 544 177 C544.66 177 545.32 177 546 177 C546.26683594 177.71929687 546.53367187 178.43859375 546.80859375 179.1796875 C548.01048302 182.02481555 549.43210623 184.5051535 551.0625 187.125 C552.72679402 189.80251948 553.99990801 191.99972402 555 195 C555.99701048 196.00298061 556.9976932 197.00231213 558 198 C559.41018144 199.97535144 560.78214126 201.9782791 562.125 204 C562.82882812 205.051875 563.53265625 206.10375 564.2578125 207.1875 C566 210 566 210 567 213 C567.66 213 568.32 213 569 213 C569.66 214.98 570.32 216.96 571 219 C571.66 219 572.32 219 573 219 C573.23976563 219.52980469 573.47953125 220.05960937 573.7265625 220.60546875 C575.36423185 223.68488995 577.3600433 226.47404281 579.375 229.3125 C581.83971863 232.81530357 584.2708209 236.29072336 586.3125 240.0625 C587.81711535 242.98084 587.81711535 242.98084 589.859375 244.84765625 C592.19668778 247.19776454 594.02442372 249.67017532 595.9375 252.375 C598.19651221 255.53761709 600.45438179 258.62524822 603 261.5625 C605 264 605 264 605 266 C606.15092152 267.18477215 607.30857781 268.36377642 608.5 269.5078125 C611.88601227 272.87618929 614.96624554 276.56012772 617.75 280.4375 C618.1625 280.953125 618.575 281.46875 619 282 C619.66 282 620.32 282 621 282 C621.27199219 282.5775 621.54398438 283.155 621.82421875 283.75 C624.87802345 289.5938256 628.85872637 293.94109976 634 298 C635.34270821 299.99371825 636.67653494 301.9934562 638 304 C639.30518475 305.03647024 640.63461347 306.04422943 642 307 C642.66 307.99 643.32 308.98 644 310 C645.6456352 311.69403624 647.30959348 313.35164339 649 315 C650.41961742 316.39283219 651.83613052 317.78883341 653.25 319.1875 C653.93578125 319.86167969 654.6215625 320.53585937 655.328125 321.23046875 C657 323 657 323 658 325 C658.721875 325.391875 659.44375 325.78375 660.1875 326.1875 C663.87114407 328.56140396 666.28762357 331.59787837 669 335 C670.65 334.67 672.3 334.34 674 334 C676.21241075 317.56596265 676.21241075 317.56596265 671.31640625 302.55859375 C668.64936897 299.74704299 665.67359702 297.39180732 662.52490234 295.14160156 C660.59055699 293.69347494 659.1609286 292.03178996 657.6875 290.125 C655.09991718 286.97186764 652.11837238 284.45918551 649.015625 281.82421875 C646.30041663 279.36684994 643.97371453 276.65094582 641.6015625 273.8671875 C639.50783094 271.4262029 637.37426999 269.17076114 635 267 C634.34 267 633.68 267 633 267 C632.773125 266.46375 632.54625 265.9275 632.3125 265.375 C630.00802092 261.20499024 626.84762401 257.84762401 623.5 254.5 C621 252 621 252 618.5 248.9375 C616.15566835 245.98297251 616.15566835 245.98297251 613.4375 244 C610.57791999 241.65367794 609.01654565 239.08783553 607 236 C605.3545622 234.31237149 603.68711423 232.6459651 602 231 C600.33333333 229 598.66666667 227 597 225 C595.33611807 223.33055324 593.66911225 221.66421749 592 220 C590.27847128 218.17905169 588.57017263 216.34550904 586.875 214.5 C585.60269531 213.12328125 585.60269531 213.12328125 584.3046875 211.71875 C582 209 582 209 580.5078125 206.46875 C578.69158946 203.49503766 576.49674651 201.43263605 574 199 C571.68576009 196.47505751 569.43554371 193.89637187 567.1875 191.3125 C566.59001953 190.63638672 565.99253906 189.96027344 565.37695312 189.26367188 C564.81298828 188.61591797 564.24902344 187.96816406 563.66796875 187.30078125 C563.15516357 186.71466064 562.6423584 186.12854004 562.11401367 185.5246582 C561 184 561 184 561 182 C559.9790625 181.2265625 559.9790625 181.2265625 558.9375 180.4375 C554.31261964 176.59983332 549.92056728 171.76170184 548 166 C547.34 165.505 546.68 165.01 546 164.5 C544 163 544 163 543 160 C541.86126681 158.82777466 540.71683077 157.66034306 539.5390625 156.52734375 C537.70189692 154.70416674 535.97261457 152.80673856 534.25 150.875 C533.65703125 150.21242187 533.0640625 149.54984375 532.453125 148.8671875 C531 147 531 147 530 144 C529.319375 143.319375 528.63875 142.63875 527.9375 141.9375 C527.298125 141.298125 526.65875 140.65875 526 140 C526 139.34 526 138.68 526 138 C525.01 138 524.02 138 523 138 Z M446 142 C447 144 447 144 447 144 Z M541 143 C541 143.66 541 144.32 541 145 C541.66 144.67 542.32 144.34 543 144 C542.34 143.67 541.68 143.34 541 143 Z M543 145 C544.65356922 148.58273331 546.67980703 151.80973467 549 155 C549.66 155 550.32 155 551 155 C551.24105469 155.55042969 551.48210937 156.10085937 551.73046875 156.66796875 C553.28819102 159.52938474 555.21498577 161.82015956 557.3125 164.3125 C559.99415103 167.5287567 562.57888511 170.7272566 564.9375 174.1875 C565.618125 175.115625 566.29875 176.04375 567 177 C567.66 177 568.32 177 569 177 C570 179 571 181 572 183 C572.66 183 573.32 183 574 183 C574.27166992 183.59006836 574.54333984 184.18013672 574.82324219 184.78808594 C575.97837605 186.95935415 577.1969304 188.56016816 578.828125 190.390625 C579.37791016 191.01404785 579.92769531 191.6374707 580.49414062 192.27978516 C581.07357422 192.92995605 581.65300781 193.58012695 582.25 194.25 C586.30311839 198.85128604 590.21272306 203.45166082 593.80078125 208.4296875 C595.64286915 210.8418026 597.82849837 212.8871876 600 215 C601.02028865 216.31787285 602.01971384 217.65210653 603 219 C605.85589743 222.51495069 608.7479897 225.84961502 612 229 C615.26539137 232.18375659 618.18408752 235.41611138 621 239 C624.48757409 243.20446432 628.0880751 247.18121617 632 251 C638.00657982 256.87932177 643.86005751 262.84717284 648.9375 269.5625 C651.28678585 272.33892873 653.88765526 274.54872809 656.6484375 276.90625 C661.30590919 281.05310187 665.62169379 285.56279281 670 290 C670.89203125 290.88816406 671.7840625 291.77632812 672.703125 292.69140625 C674.1966903 294.19259178 675.6529837 295.73213324 677.0625 297.3125 C679.07449596 299.43785383 679.07449596 299.43785383 683 299 C683 290.09 683 281.18 683 272 C676.07 272 669.14 272 662 272 C662.66964286 260.88392857 662.66964286 260.88392857 666 256 C665.32195312 255.45472656 664.64390625 254.90945312 663.9453125 254.34765625 C658.13246641 249.63780173 652.49900172 244.82147999 646.99609375 239.75 C645.11549325 237.95218021 645.11549325 237.95218021 643 237 C642.34 236.01 641.68 235.02 641 234 C639.78461604 232.99812944 638.5300237 232.04284645 637.25 231.125 C627.80094787 224.2014218 627.80094787 224.2014218 625 220 C623.82300309 219.0633757 622.61004786 218.17112889 621.375 217.3125 C617.54806863 214.52174139 614.31469647 211.4187679 611.0234375 208.0234375 C608.36857333 205.36857333 605.53949348 202.95443577 602.6640625 200.54296875 C601 199 601 199 599 196 C598.236875 195.566875 597.47375 195.13375 596.6875 194.6875 C594.00505758 193.00317569 592.56512307 191.25393032 590.6328125 188.79296875 C588.53043217 186.48437408 586.19007155 184.63479944 583.75 182.6875 C578.45129789 178.45569872 573.70093331 173.87721831 569 169 C566.11626327 166.03344055 562.99154006 163.39505078 559.83984375 160.71875 C558 159 558 159 556 156 C554.92505884 155.00899631 553.81783405 154.05232505 552.6875 153.125 C550.39277375 151.20873591 548.21152693 149.26627545 546.125 147.125 C545.42375 146.42375 544.7225 145.7225 544 145 C543.67 145 543.34 145 543 145 Z M441 147 C439.6962889 148.32512878 439.6962889 148.32512878 438.375 150.0625 C434.46249728 154.78415779 429.91022204 158.61436734 425.1796875 162.4921875 C422.01364425 165.11872562 419.22996013 167.79931161 416.5625 170.9375 C412.15809285 176.11218463 407.04327181 180.31967243 401.8125 184.625 C398.97236217 186.95585451 398.97236217 186.95585451 396.4375 189.5625 C394 192 394 192 391.375 194.0625 C388.95270558 195.87701891 388.95270558 195.87701891 387.375 198.1875 C386 200 386 200 383 201 C381.49153848 202.52620876 381.49153848 202.52620876 380 204.4375 C373.4508059 212.14731077 365.7426261 218.67962792 357.58203125 224.625 C357.05996094 225.07875 356.53789063 225.5325 356 226 C356 226.66 356 227.32 356 228 C355.16855469 228.35384766 355.16855469 228.35384766 354.3203125 228.71484375 C351.43552758 230.3126455 349.28827968 232.31851009 346.875 234.5625 C342.19444444 238.90277778 342.19444444 238.90277778 340 240 C340 240.66 340 241.32 340 242 C338.5459375 242.4021875 338.5459375 242.4021875 337.0625 242.8125 C335.5465625 243.4003125 335.5465625 243.4003125 334 244 C333.67 244.99 333.34 245.98 333 247 C331.15234375 248.82421875 331.15234375 248.82421875 328.9375 250.6875 C328.20402344 251.31011719 327.47054687 251.93273437 326.71484375 252.57421875 C326.14894531 253.04472656 325.58304688 253.51523438 325 254 C325.639375 254.515625 326.27875 255.03125 326.9375 255.5625 C329.55791681 258.65935623 329.69389817 261.02067623 330 265 C329.4438501 264.91371338 328.8877002 264.82742676 328.31469727 264.73852539 C324.63442503 264.41463033 322.02111047 264.33944524 318.85107422 266.39013672 C316.76065117 268.3191724 314.84054929 270.32363961 312.9375 272.4375 C312.26267578 273.14455078 311.58785156 273.85160156 310.89257812 274.58007812 C307.67766046 277.41315239 307.67766046 277.41315239 306 281 C307.010625 281.061875 308.02125 281.12375 309.0625 281.1875 C313.67383674 281.80861883 316.41324628 284.14523684 320 287 C324.53356692 283.29912904 328.46653818 279.51186056 332.2265625 275.02734375 C334.3781763 272.56767952 336.67203402 270.29332363 339 268 C345.85504354 261.23595262 352.47264486 254.41570142 358.65234375 247.0234375 C359.17957031 246.39695312 359.70679688 245.77046875 360.25 245.125 C360.70890625 244.57070312 361.1678125 244.01640625 361.640625 243.4453125 C363 242 363 242 366 240 C367.09829474 238.86696601 368.15993826 237.69755344 369.1875 236.5 C369.71730469 235.8915625 370.24710938 235.283125 370.79296875 234.65625 C372.19632158 233.07218238 372.19632158 233.07218238 372 231 C372.66 231 373.32 231 374 231 C375.3302109 229.48772933 376.59027591 227.91330976 377.8125 226.3125 C380.69044156 222.61749366 383.63875019 219.26788176 387 216 C388.34294481 214.34106818 389.67744688 212.67523395 391 211 C391.99731545 209.99732264 392.99747157 208.99746516 394 208 C399.70932671 201.47505519 405.17260827 194.74263758 410.6171875 187.99609375 C413.78379065 184.10810467 413.78379065 184.10810467 416 183 C417.01608418 181.34309001 418.0132864 179.67456683 419 178 C420.30444442 176.2695072 421.63871132 174.56114166 423 172.875 C423.680625 172.02679688 424.36125 171.17859375 425.0625 170.3046875 C427 168 427 168 428.45678711 166.55688477 C431.06602683 163.92452886 433.27571162 160.97432383 435.5625 158.0625 C436.3040332 157.13147461 436.3040332 157.13147461 437.06054688 156.18164062 C439.37594192 153.23961634 441.52792477 150.47549123 443 147 C442.34 147 441.68 147 441 147 Z M539 187 C540 189 540 189 540 189 Z M544 195 C544 196.98 544 198.96 544 201 C545.32 201 546.64 201 548 201 C546.84826645 198.53199953 545.95216435 196.95216435 544 195 Z M442 196 C441.67 196.99 441.34 197.98 441 199 C440.01 199.495 440.01 199.495 439 200 C440.32 200.33 441.64 200.66 443 201 C443 199.35 443 197.7 443 196 C442.67 196 442.34 196 442 196 Z M549 203 C549 205.97 549 208.94 549 212 C550.98 212 552.96 212 555 212 C553.68775452 208.06326356 552.08089673 205.77280706 549 203 Z M437 204 C436.10887963 205.30892435 435.26149076 206.64781004 434.4375 208 C433.98246094 208.7425 433.52742188 209.485 433.05859375 210.25 C432.53458984 211.11625 432.53458984 211.11625 432 212 C433.98 212 435.96 212 438 212 C438 209.36 438 206.72 438 204 C437.67 204 437.34 204 437 204 Z M1244 207 C1247.17539556 210.42578949 1247.17539556 210.42578949 1251 213 C1251 211.02 1251 209.04 1251 207 C1248.69 207 1246.38 207 1244 207 Z M1402 207 C1402 208.98 1402 210.96 1402 213 C1405.36720387 211.60667426 1406.9859524 210.0210714 1409 207 C1406.69 207 1404.38 207 1402 207 Z M557 215 C556.83409036 219.54868922 557.41874875 223.45989071 558.5 227.875 C558.7784375 229.02742187 559.056875 230.17984375 559.34375 231.3671875 C559.5603125 232.23601562 559.776875 233.10484375 560 234 C559.01 234 558.02 234 557 234 C557 243.24 557 252.48 557 262 C558.32 262 559.64 262 561 262 C560.86078125 263.05445313 560.7215625 264.10890625 560.578125 265.1953125 C560.59465906 269.21009655 560.59465906 269.21009655 563.859375 271.5546875 C565.14189283 272.35170591 566.44002547 273.12396267 567.75 273.875 C569.13595557 274.73140279 570.52004877 275.59082623 571.90234375 276.453125 C572.59569824 276.87787109 573.28905273 277.30261719 574.00341797 277.74023438 C578.90126927 280.83058809 583.42806983 284.4533687 588 288 C588.86238281 288.66773438 589.72476562 289.33546875 590.61328125 290.0234375 C595.7748956 294.08529887 600.70642285 298.34703295 605.5546875 302.77734375 C607.90151662 304.91048395 610.29034586 306.98632073 612.6875 309.0625 C623.49868245 318.69772928 631.46281141 330.16444679 637.5546875 343.2265625 C638.70601778 346.09738798 638.70601778 346.09738798 641 347 C642.45579167 347.15176207 643.91486861 347.27313037 645.375 347.375 C649.09852379 347.76883425 651.36421655 348.16146398 654 351 C655.01866229 352.65532623 656.01810813 354.32260138 657 356 C657.680625 356.66 658.36125 357.32 659.0625 358 C661 360 661 360 662 362.5625 C662.78419082 365.14121315 662.78419082 365.14121315 665.0625 366.3125 C667.73565397 368.64073088 667.77390186 370.62563128 668.0390625 374.06640625 C667.98867306 376.56068372 667.52366239 378.0192389 666 380 C665.01 380.66 664.02 381.32 663 382 C662.71125 383.134375 662.4225 384.26875 662.125 385.4375 C661 389 661 389 658.5625 390.875 C656 392 656 392 653 393 C653 394.32 653 395.64 653 397 C654.32 397 655.64 397 657 397 C657 398.32 657 399.64 657 401 C658.32 401 659.64 401 661 401 C661 402.65 661 404.3 661 406 C662.98 406 664.96 406 667 406 C667 407.65 667 409.3 667 411 C669.31 410.67 671.62 410.34 674 410 C674 399.44 674 388.88 674 378 C672.68 378 671.36 378 670 378 C670 377.01 670 376.02 670 375 C671.32 375 672.64 375 674 375 C675.59261154 360.90290355 675.59261154 360.90290355 672.1015625 347.73046875 C669.81688674 345.79699719 667.63617677 344.39776558 665 343 C663.97039988 342.03050344 662.96973722 341.02937346 662 340 C659.96039246 338.2229162 657.90187097 336.46974518 655.83984375 334.71875 C654 333 654 333 652 330 C650.92505884 329.00899631 649.81783405 328.05232505 648.6875 327.125 C643.51850773 322.87364905 639.00869845 317.9942836 634.5 313.0625 C634.03980469 312.56298828 633.57960938 312.06347656 633.10546875 311.54882812 C630.78113836 309.01170692 628.51770865 306.4437085 626.328125 303.7890625 C624.02237783 300.93122786 624.02237783 300.93122786 621.25 298.3125 C619 296 619 296 618 293 C616.68212715 291.97971135 615.34789347 290.98028616 614 290 C613.34 289.01 612.68 288.02 612 287 C610.21573137 284.91904005 608.38746421 282.88163884 606.55859375 280.83984375 C605 279 605 279 604 277 C603.34 277 602.68 277 602 277 C601.72905518 276.41968018 601.45811035 275.83936035 601.17895508 275.24145508 C599.99997776 272.99995772 598.68873334 271.13479752 597.13671875 269.13671875 C596.57919922 268.41419922 596.02167969 267.69167969 595.44726562 266.94726562 C594.86654297 266.20154297 594.28582031 265.45582031 593.6875 264.6875 C582 249.61155153 582 249.61155153 582 247 C581.01 247 580.02 247 579 247 C578.7525 246.0925 578.505 245.185 578.25 244.25 C576.91561912 240.78060972 575.62052812 239.54345376 573 237 C571.54532371 234.719028 570.28417641 232.38489905 569 230 C568.34 230 567.68 230 567 230 C566.7525 228.9275 566.505 227.855 566.25 226.75 C564.96267749 222.88803247 564.0211839 221.57689215 561 219 C559.66666667 217.66666667 558.33333333 216.33333333 557 215 Z M429 216 C428.0409375 217.4540625 428.0409375 217.4540625 427.0625 218.9375 C425 222 425 222 423 223 C421.98855529 224.9942366 420.99044218 226.99524957 420 229 C418.72707637 230.86103003 417.41367231 232.69497902 416.0625 234.5 C413.83601872 237.49860047 411.63860732 240.47921348 409.625 243.625 C408 246 408 246 406 247 C405.08644632 248.62409543 404.17626298 250.25019955 403.28515625 251.88671875 C401.28099265 255.18231907 398.83173155 258.10244531 396.390625 261.08203125 C394.80433514 262.8750204 394.80433514 262.8750204 395 265 C394.34 265 393.68 265 393 265 C391.78995325 266.51331661 390.65876169 268.08982964 389.5625 269.6875 C384.75864948 276.4688919 379.42691005 282.71313343 374 289 C372.91635221 290.2705652 371.83294841 291.54133863 370.75 292.8125 C362.66023695 302.21598525 362.66023695 302.21598525 358.58984375 306.58984375 C357.77644531 307.46769531 356.96304688 308.34554687 356.125 309.25 C355.36445312 310.05953125 354.60390625 310.8690625 353.8203125 311.703125 C352.06458058 313.91851206 351.39230506 315.24120956 351 318 C350.43796875 318.05800781 349.8759375 318.11601562 349.296875 318.17578125 C345.97532701 319.36769728 344.5166416 321.51300729 342.25 324.1875 C338.76515042 328.20283472 335.24967251 331.49186071 330.88671875 334.52734375 C328.01336754 336.77010442 325.7713821 339.47434148 323.4453125 342.265625 C322 344 322 344 320 346 C320 347.32 320 348.64 320 350 C318.35 350 316.7 350 315 350 C315 355.28 315 360.56 315 366 C315.66 365.67 316.32 365.34 317 365 C319.50709867 364.95932864 321.93846165 365.00275165 324.4375 365.125 C325.11876953 365.1353125 325.80003906 365.145625 326.50195312 365.15625 C328.49609375 365.2578125 328.49609375 365.2578125 332 366 C333.8046875 368.50390625 333.8046875 368.50390625 335 371 C337.59122743 371.88658466 337.59122743 371.88658466 340 372 C340 369.69 340 367.38 340 365 C340.99 365 341.98 365 343 365 C343 362.03 343 359.06 343 356 C344.32 356 345.64 356 347 356 C347.06316406 355.36835938 347.12632812 354.73671875 347.19140625 354.0859375 C348.96366202 341.13914271 355.45089191 330.63167671 364 321 C364.72316406 320.16855469 365.44632813 319.33710938 366.19140625 318.48046875 C373.95568846 309.68995098 382.06242009 301.6235749 391.27880859 294.35742188 C392.52413034 293.37529579 393.7662421 292.38909489 395.00634766 291.40039062 C397.24860743 289.61385009 399.49744716 287.83604397 401.75 286.0625 C402.51352783 285.46083008 403.27705566 284.85916016 404.0637207 284.23925781 C407.77661424 281.35462214 411.50188587 278.61520146 415.4921875 276.125 C416.18989258 275.68792725 416.88759766 275.25085449 417.60644531 274.80053711 C418.9171973 273.99661556 420.24175442 273.21463265 421.58105469 272.45922852 C423.60088217 271.30085532 423.60088217 271.30085532 426 269 C426.53297926 265.30743195 426.53297926 265.30743195 426 262 C427.32 262 428.64 262 430 262 C430 252.76 430 243.52 430 234 C429.01 234 428.02 234 427 234 C427.2165625 233.11957031 427.433125 232.23914063 427.65625 231.33203125 C427.9346875 230.17058594 428.213125 229.00914062 428.5 227.8125 C428.7784375 226.66394531 429.056875 225.51539063 429.34375 224.33203125 C429.91495385 221.43181171 430.13283779 218.93903615 430 216 C429.67 216 429.34 216 429 216 Z M247 265 C247.95421808 266.14926266 248.91352045 267.29430541 249.875 268.4375 C250.40867187 269.07558594 250.94234375 269.71367187 251.4921875 270.37109375 C252.9222757 272.10805004 252.9222757 272.10805004 255 273 C255 270.36 255 267.72 255 265 C252.36 265 249.72 265 247 265 Z M311 265 C308.30566683 266.87197454 308.30566683 266.87197454 306 269 C306.33 270.32 306.66 271.64 307 273 C309.31 270.69 311.62 268.38 314 266 C313.01 265.67 312.02 265.34 311 265 Z M-445 279 C-445 285.27 -445 291.54 -445 298 C-437.08 298 -429.16 298 -421 298 C-421 296.68 -421 295.36 -421 294 C-428.59 294 -436.18 294 -444 294 C-444 292.35 -444 290.7 -444 289 C-436.41 289 -428.82 289 -421 289 C-421 285.7 -421 282.4 -421 279 C-428.92 279 -436.84 279 -445 279 Z M-412 279 C-412 282.3 -412 285.6 -412 289 C-410.02 289 -408.04 289 -406 289 C-406 285.7 -406 282.4 -406 279 C-407.98 279 -409.96 279 -412 279 Z M-310 279 C-310 282.3 -310 285.6 -310 289 C-308.02 289 -306.04 289 -304 289 C-304 285.7 -304 282.4 -304 279 C-305.98 279 -307.96 279 -310 279 Z M-296 279 C-296 282.3 -296 285.6 -296 289 C-287.75 289 -279.5 289 -271 289 C-271 285.7 -271 282.4 -271 279 C-279.25 279 -287.5 279 -296 279 Z M1559 285 C1558.23255163 288.06979349 1557.87571913 290.04366422 1557.87974548 293.08758545 C1557.87837082 293.89242874 1557.87699615 294.69727203 1557.87557983 295.52650452 C1557.87917511 296.40044357 1557.88277039 297.27438263 1557.88647461 298.17480469 C1557.88632858 299.101978 1557.88618256 300.02915131 1557.8860321 300.98442078 C1557.88672838 304.04692937 1557.89450751 307.10937704 1557.90234375 310.171875 C1557.90420894 312.2960812 1557.90563237 314.42028784 1557.90663147 316.54449463 C1557.91044869 322.13402495 1557.92027222 327.72352927 1557.93133545 333.31304932 C1557.94156663 339.01728972 1557.94613275 344.72153432 1557.95117188 350.42578125 C1557.96189518 361.61719892 1557.97896209 372.8085973 1558 384 C1558.61690232 383.77567386 1559.23380465 383.55134771 1559.86940098 383.32022381 C1560.6792139 383.03574792 1561.48902681 382.75127203 1562.32337952 382.45817566 C1563.12590684 382.17197452 1563.92843416 381.88577337 1564.75528049 381.59089947 C1567 381 1567 381 1569.82592773 381.66918945 C1570.60395752 382.14573975 1571.3819873 382.62229004 1572.18359375 383.11328125 C1573.04791016 383.61923828 1573.91222656 384.12519531 1574.80273438 384.64648438 C1575.67220703 385.19626953 1576.54167969 385.74605469 1577.4375 386.3125 C1579.20542974 387.37376623 1580.97488498 388.43249667 1582.74609375 389.48828125 C1583.51622803 389.96821533 1584.2863623 390.44814941 1585.07983398 390.94262695 C1586.92664826 392.1607892 1586.92664826 392.1607892 1589 392 C1589 393.32 1589 394.64 1589 396 C1581.74 396 1574.48 396 1567 396 C1567 398.31 1567 400.62 1567 403 C1569.64 403.33 1572.28 403.66 1575 404 C1575.33 407.63 1575.66 411.26 1576 415 C1590.85 415 1605.7 415 1621 415 C1621 413.35 1621 411.7 1621 410 C1620.27554688 409.93683594 1619.55109375 409.87367188 1618.8046875 409.80859375 C1614.0817336 409.21035292 1609.87742153 408.66266722 1606.3125 405.3125 C1602.38520673 399.94368579 1603.10234613 392.27661853 1604 386 C1605.81303358 382.39890575 1607.82700433 379.51973186 1611 377 C1613.6875 376.8125 1613.6875 376.8125 1616 377 C1616.33 376.67 1616.66 376.34 1617 376 C1619.01964199 375.92755947 1621.04167124 375.91622812 1623.0625 375.9375 C1624.16722656 375.94652344 1625.27195312 375.95554687 1626.41015625 375.96484375 C1627.26480469 375.97644531 1628.11945312 375.98804688 1629 376 C1629.75365434 369.56495144 1630.05494796 363.57687278 1629.3125 357.125 C1628.67966253 350.52766935 1628.67966253 350.52766935 1630.8125 347.25 C1633 345 1633 345 1635 344 C1635.85185473 341.5113354 1636.47104109 338.99351892 1637.12109375 336.4453125 C1638.32452681 333.09709431 1639.85039064 331.57480468 1643 330 C1645.76359435 330.00877332 1648.51287016 330.1313175 1651.2734375 330.2578125 C1654.46558082 329.9559766 1655.57881049 329.01341022 1658 327 C1663.37433304 325.68176737 1666.78648645 326.41732624 1672 328 C1673.794375 327.9690625 1673.794375 327.9690625 1675.625 327.9375 C1679.54517805 328.01009589 1681.00889982 328.4939431 1684 331 C1684.72591138 332.18565525 1685.41168309 333.39652003 1686.0625 334.625 C1686.701875 335.73875 1687.34125 336.8525 1688 338 C1689.32 338.33 1690.64 338.66 1692 339 C1692 322.5 1692 306 1692 289 C1691.34 289 1690.68 289 1690 289 C1690 287.68 1690 286.36 1690 285 C1646.77 285 1603.54 285 1559 285 Z M1178 287 C1182.11137878 291.23985937 1186.40973998 295.27845742 1191 299 C1191.33 299 1191.66 299 1192 299 C1192 295.04 1192 291.08 1192 287 C1187.38 287 1182.76 287 1178 287 Z M1462 287 C1462 290.96 1462 294.92 1462 299 C1466.78075823 295.45564476 1471.51974322 291.92022468 1476 288 C1476 287.67 1476 287.34 1476 287 C1471.38 287 1466.76 287 1462 287 Z M-412 294 C-412 295.32 -412 296.64 -412 298 C-410.02 298 -408.04 298 -406 298 C-406 296.68 -406 295.36 -406 294 C-407.98 294 -409.96 294 -412 294 Z M-310 294 C-310 295.32 -310 296.64 -310 298 C-308.02 298 -306.04 298 -304 298 C-304 296.68 -304 295.36 -304 294 C-305.98 294 -307.96 294 -310 294 Z M-296 294 C-296 295.32 -296 296.64 -296 298 C-287.75 298 -279.5 298 -271 298 C-271 296.68 -271 295.36 -271 294 C-279.25 294 -287.5 294 -296 294 Z M-445 310 C-445.02696855 314.39587435 -445.04682429 318.79158323 -445.0625 323.1875 C-445.07087891 324.43337891 -445.07925781 325.67925781 -445.08789062 326.96289062 C-445.09111328 328.16494141 -445.09433594 329.36699219 -445.09765625 330.60546875 C-445.10289307 331.71043701 -445.10812988 332.81540527 -445.11352539 333.95385742 C-445.00892002 336.76065568 -444.5694736 339.25991118 -444 342 C-444.4375 344.3125 -444.4375 344.3125 -445 346 C-443.68 346 -442.36 346 -441 346 C-441.33 348.31 -441.66 350.62 -442 353 C-441.01 353 -440.02 353 -439 353 C-439.24556641 353.81210937 -439.24556641 353.81210937 -439.49609375 354.640625 C-440.08590587 357.40222593 -440.09609308 359.92818139 -440.0625 362.75 C-440.041875 364.4825 -440.02125 366.215 -440 368 C-433.73 368 -427.46 368 -421 368 C-421 348.86 -421 329.72 -421 310 C-428.92 310 -436.84 310 -445 310 Z M-412 310 C-412 329.14 -412 348.28 -412 368 C-410.02 368 -408.04 368 -406 368 C-406 348.86 -406 329.72 -406 310 C-407.98 310 -409.96 310 -412 310 Z M-310 310 C-310 329.14 -310 348.28 -310 368 C-308.02 368 -306.04 368 -304 368 C-304 348.86 -304 329.72 -304 310 C-305.98 310 -307.96 310 -310 310 Z M-296 310 C-296 329.14 -296 348.28 -296 368 C-292.37 368 -288.74 368 -285 368 C-285 364.37 -285 360.74 -285 357 C-285.66 357 -286.32 357 -287 357 C-287.12375 356.154375 -287.2475 355.30875 -287.375 354.4375 C-288.02770327 350.84763202 -288.95247463 347.49175125 -290 344 C-289.195625 343.2575 -288.39125 342.515 -287.5625 341.75 C-285.23011409 339.24695171 -284.36465606 338.2819045 -284 335 C-283.34 335 -282.68 335 -282 335 C-281.938125 335.556875 -281.87625 336.11375 -281.8125 336.6875 C-280.66805194 339.94477526 -278.47377916 341.6499098 -276 344 C-275.67 344.66 -275.34 345.32 -275 346 C-274.01 346 -273.02 346 -272 346 C-272.020625 344.700625 -272.04125 343.40125 -272.0625 342.0625 C-272.08399454 340.70834367 -272.07148199 339.35243917 -272 338 C-271.67 337.67 -271.34 337.34 -271 337 C-270.91241997 335.00035018 -270.89303424 332.9976389 -270.90234375 330.99609375 C-270.90556641 329.78115234 -270.90878906 328.56621094 -270.91210938 327.31445312 C-270.92048828 326.03505859 -270.92886719 324.75566406 -270.9375 323.4375 C-270.94426758 321.51260742 -270.94426758 321.51260742 -270.95117188 319.54882812 C-270.96300445 316.3658658 -270.98094056 313.18292726 -271 310 C-279.25 310 -287.5 310 -296 310 Z M239 321 C240.49097658 324.7952131 242.75700849 326.61042731 246 329 C246 325.37 246 321.74 246 318 C242.48283697 318 241.62878252 318.82445585 239 321 Z M315 318 C315 321.63 315 325.26 315 329 C319.18185421 325.47412292 323.19095875 321.92446674 327 318 C323.04 318 319.08 318 315 318 Z M232 326 C229.46364917 327.22283616 229.46364917 327.22283616 226.8125 329.0625 C225.82894531 329.71347656 224.84539063 330.36445313 223.83203125 331.03515625 C220.85664592 333.09945807 217.97354869 335.25281139 215.1015625 337.45703125 C209.10475219 341.85989384 202.76618238 345.8912135 196 349 C196 349.66 196 350.32 196 351 C195.195625 351.268125 194.39125 351.53625 193.5625 351.8125 C192.716875 352.204375 191.87125 352.59625 191 353 C190.67 353.99 190.34 354.98 190 356 C190.61875 356.25007813 191.2375 356.50015625 191.875 356.7578125 C194.38762223 358.22658799 194.88346147 359.23319008 196 361.875 C197.24652719 364.6401139 197.9049733 365.91817146 200.25 367.9375 C202.40788432 370.48072081 202.12159139 371.26525132 201.9375 374.5 C201.72241345 378.44213892 201.72241345 378.44213892 204.3125 381.625 C205.199375 382.07875 206.08625 382.5325 207 383 C208.485 382.505 208.485 382.505 210 382 C210 381.34 210 380.68 210 380 C210.66773438 379.78472656 211.33546875 379.56945312 212.0234375 379.34765625 C215.98071277 377.5559765 219.18287709 375.06279101 222.625 372.4375 C223.94781225 371.43262235 225.27323413 370.43116835 226.6015625 369.43359375 C227.18244629 368.99072021 227.76333008 368.54784668 228.36181641 368.09155273 C230 367 230 367 233 366 C234.35368596 364.68733482 235.68799596 363.35432675 237 362 C237.66 361.67 238.32 361.34 239 361 C239 360.34 239 359.68 239 359 C239.99 358.67 240.98 358.34 242 358 C241.69964844 357.26394531 241.39929688 356.52789062 241.08984375 355.76953125 C240.51943359 354.30580078 240.51943359 354.30580078 239.9375 352.8125 C239.55464844 351.84957031 239.17179688 350.88664062 238.77734375 349.89453125 C237.92869152 346.73447445 237.94656272 345.07603685 239 342 C241.5625 339.6875 241.5625 339.6875 244 338 C243.45123677 334.23348872 241.99236151 332.73347739 239.125 330.3125 C238.42632813 329.71050781 237.72765625 329.10851562 237.0078125 328.48828125 C234.97175778 326.81787213 234.97175778 326.81787213 232 326 Z M-288 344 C-289.2077558 347.62326739 -288.54311128 348.64146369 -287 352 C-285.90341064 348.71023192 -286.20046862 347.28696233 -287 344 C-287.33 344 -287.66 344 -288 344 Z M-286 344 C-285.85904936 345.6254308 -285.71207913 347.25034051 -285.5625 348.875 C-285.48128906 349.77992188 -285.40007812 350.68484375 -285.31640625 351.6171875 C-285.13010715 354.01110861 -285.13010715 354.01110861 -284 356 C-283.01 355.67 -282.02 355.34 -281 355 C-280.67 351.37 -280.34 347.74 -280 344 C-281.98 344 -283.96 344 -286 344 Z M-279 344 C-279 345.98 -279 347.96 -279 350 C-278.34 349.01 -277.68 348.02 -277 347 C-277.33 346.01 -277.66 345.02 -278 344 C-278.33 344 -278.66 344 -279 344 Z M240 344 C239.67 344.99 239.34 345.98 239 347 C239.99 348.485 239.99 348.485 241 350 C241 348.02 241 346.04 241 344 C240.67 344 240.34 344 240 344 Z M242 344 C242 344.66 242 345.32 242 346 C243.32 346 244.64 346 246 346 C246 345.34 246 344.68 246 344 C244.68 344 243.36 344 242 344 Z M1518 344 C1517.3185177 345.89179203 1517.3185177 345.89179203 1517 348 C1517.66 348.66 1518.32 349.32 1519 350 C1519 348.02 1519 346.04 1519 344 C1518.67 344 1518.34 344 1518 344 Z M1520 344 C1520.33 347.96 1520.66 351.92 1521 356 C1521.99 356 1522.98 356 1524 356 C1524.96070434 353.11788698 1525.10581883 351.30149956 1525.0625 348.3125 C1525.05347656 347.50425781 1525.04445313 346.69601562 1525.03515625 345.86328125 C1525.02355469 345.24839844 1525.01195313 344.63351562 1525 344 C1523.35 344 1521.7 344 1520 344 Z M1527 344 C1526.67 346.64 1526.34 349.28 1526 352 C1527.74627478 349.38058783 1528.38722388 347.96175123 1529 345 C1528.34 344.67 1527.68 344.34 1527 344 Z M-276 346 C-276.50615298 347.26839526 -277.00469099 348.53983102 -277.5 349.8125 C-277.7784375 350.52019531 -278.056875 351.22789062 -278.34375 351.95703125 C-279.1529162 354.11841216 -279.1529162 354.11841216 -279 357 C-279.66 357 -280.32 357 -281 357 C-281 360.63 -281 364.26 -281 368 C-279.35 368 -277.7 368 -276 368 C-275.97284617 366.25008666 -275.95353449 364.50005055 -275.9375 362.75 C-275.92589844 361.77546875 -275.91429687 360.8009375 -275.90234375 359.796875 C-275.98804423 357.34241322 -276.29293934 355.33831086 -277 353 C-276.01 353 -275.02 353 -274 353 C-274.33 350.69 -274.66 348.38 -275 346 C-275.33 346 -275.66 346 -276 346 Z M-280 350 C-279 352 -279 352 -279 352 Z M243 350 C243 351.98 243 353.96 243 356 C243.99 355.67 244.98 355.34 246 355 C246 353.35 246 351.7 246 350 C245.01 350 244.02 350 243 350 Z M241 351 C242 353 242 353 242 353 Z M1519 351 C1520 353 1520 353 1520 353 Z M1137 368 C1137 371.3 1137 374.6 1137 378 C1146.405 382.95 1146.405 382.95 1156 388 C1157.30545686 385.7852268 1157.30545686 385.7852268 1156.875 382.0625 C1156.81275844 378.20352343 1156.81275844 378.20352343 1158.4375 376.4375 C1158.953125 375.963125 1159.46875 375.48875 1160 375 C1160.33 372.69 1160.66 370.38 1161 368 C1153.08 368 1145.16 368 1137 368 Z M234.48046875 375.71289062 C231.98622275 377.61864093 230.0025937 378.99913543 227 380 C226.40703125 380.59296875 225.8140625 381.1859375 225.203125 381.796875 C222.6068459 384.3931541 219.82322288 386.24572421 216.75 388.25 C215.67234375 388.95640625 214.5946875 389.6628125 213.484375 390.390625 C212.66453125 390.92171875 211.8446875 391.4528125 211 392 C211.7653644 398.16543546 213.90760343 400.42176093 218.62109375 404.3515625 C220.40198349 406.48055817 220.48876585 407.94496877 220.6875 410.6875 C220.78611328 411.89986328 220.78611328 411.89986328 220.88671875 413.13671875 C220.92410156 413.75160156 220.96148438 414.36648438 221 415 C221.33 415 221.66 415 222 415 C222 412.03 222 409.06 222 406 C225.63 406 229.26 406 233 406 C233 403.03 233 400.06 233 397 C234.98 397 236.96 397 239 397 C243.12954219 391.07394438 243.51644114 386.67955273 243.25 379.5625 C243.23195313 378.64017578 243.21390625 377.71785156 243.1953125 376.76757812 C243.14853601 374.51061267 243.08301871 372.25587388 243 370 C240.34701609 370 236.62755826 374.04774876 234.48046875 375.71289062 Z M-440 375 C-440 377.97 -440 380.94 -440 384 C-433.73 384 -427.46 384 -421 384 C-421 380.7 -421 377.4 -421 374 C-423.97922593 373.97316013 -426.95821295 373.95323963 -429.9375 373.9375 C-430.78763672 373.92912109 -431.63777344 373.92074219 -432.51367188 373.91210938 C-433.32255859 373.90888672 -434.13144531 373.90566406 -434.96484375 373.90234375 C-435.7137085 373.89710693 -436.46257324 373.89187012 -437.23413086 373.88647461 C-439.02667739 373.80658248 -439.02667739 373.80658248 -440 375 Z M-412 374 C-412 377.3 -412 380.6 -412 384 C-410.02 384 -408.04 384 -406 384 C-406 380.7 -406 377.4 -406 374 C-407.98 374 -409.96 374 -412 374 Z M-310 374 C-310 377.3 -310 380.6 -310 384 C-308.02 384 -306.04 384 -304 384 C-304 380.7 -304 377.4 -304 374 C-305.98 374 -307.96 374 -310 374 Z M-296 374 C-296 377.3 -296 380.6 -296 384 C-292.37 384 -288.74 384 -285 384 C-285 380.7 -285 377.4 -285 374 C-288.63 374 -292.26 374 -296 374 Z M-281 374 C-281 377.3 -281 380.6 -281 384 C-279.35 384 -277.7 384 -276 384 C-276 381.03 -276 378.06 -276 375 C-277.65 374.67 -279.3 374.34 -281 374 Z M1518.125 376.5 C1515.74565264 379.29923219 1514.77492818 381.75579926 1513.61328125 385.1953125 C1513 387 1513 387 1512 389 C1516.455 388.505 1516.455 388.505 1521 388 C1521 383.71 1521 379.42 1521 375 C1519.72994954 374.89588416 1519.72994954 374.89588416 1518.125 376.5 Z M1650 387 C1651 389 1651 389 1651 389 Z M-410 389 C-410 390.98 -410 392.96 -410 395 C-408.68 395 -407.36 395 -406 395 C-406 393.02 -406 391.04 -406 389 C-407.32 389 -408.64 389 -410 389 Z M-310 389 C-310 390.98 -310 392.96 -310 395 C-308.68 395 -307.36 395 -306 395 C-306 393.02 -306 391.04 -306 389 C-307.32 389 -308.64 389 -310 389 Z M-293 389 C-293 390.98 -293 392.96 -293 395 C-290.36 395 -287.72 395 -285 395 C-285 393.02 -285 391.04 -285 389 C-287.64 389 -290.28 389 -293 389 Z M-281 389 C-281 390.98 -281 392.96 -281 395 C-279.35 395 -277.7 395 -276 395 C-276 393.02 -276 391.04 -276 389 C-277.65 389 -279.3 389 -281 389 Z M1672 389 C1671.67 390.98 1671.34 392.96 1671 395 C1674.81615468 397.47045803 1678.84744248 397.43831912 1683.25 397.625 C1683.99507812 397.66367187 1684.74015625 397.70234375 1685.5078125 397.7421875 C1687.3381524 397.83605108 1689.16904143 397.91909718 1691 398 C1690.67 397.01 1690.34 396.02 1690 395 C1688.741875 395.061875 1687.48375 395.12375 1686.1875 395.1875 C1682.26785714 395.1875 1682.26785714 395.1875 1680.125 393.6875 C1678.5625 391.34375 1678.5625 391.34375 1677 389 C1674.41619823 388.74969023 1674.41619823 388.74969023 1672 389 Z M1501 392 C1498.66703499 392.66795445 1496.33375474 393.33481003 1494 394 C1493.97289877 396.5625718 1493.95311229 399.12485365 1493.9375 401.6875 C1493.92912109 402.40873047 1493.92074219 403.12996094 1493.91210938 403.87304688 C1493.89456368 407.71555382 1494.06475779 411.26639526 1495 415 C1495.99 415 1496.98 415 1498 415 C1498 413.35 1498 411.7 1498 410 C1504.27 410 1510.54 410 1517 410 C1517 409.34 1517 408.68 1517 408 C1512.79283456 404.87855467 1507.94627599 403.51944426 1503 402 C1502.75 396.375 1502.75 396.375 1505 393 C1507.625 392.3125 1507.625 392.3125 1510 392 C1510 391.34 1510 390.68 1510 390 C1506.84208419 390 1504.01848033 391.10930089 1501 392 Z M1476 392 C1474.02 392.99 1474.02 392.99 1472 394 C1472 396.64 1472 399.28 1472 402 C1475.96 402 1479.92 402 1484 402 C1484 406.29 1484 410.58 1484 415 C1485.65 414.67 1487.3 414.34 1489 414 C1489.19484938 411.56288386 1489.38115178 409.12562602 1489.5625 406.6875 C1489.61857422 405.99720703 1489.67464844 405.30691406 1489.73242188 404.59570312 C1489.96581505 401.37487726 1490.03224218 399.09672655 1489 396 C1488.39671875 395.96261719 1487.7934375 395.92523438 1487.171875 395.88671875 C1479.23374341 395.23374341 1479.23374341 395.23374341 1476 392 Z M1137 394 C1137 400.6 1137 407.2 1137 414 C1140.47782583 415.15927528 1143.18803257 415.11313066 1146.85546875 415.09765625 C1147.51710526 415.0962413 1148.17874176 415.09482635 1148.86042786 415.09336853 C1150.96949828 415.08777996 1153.07846177 415.07522965 1155.1875 415.0625 C1156.61913909 415.05748352 1158.05077985 415.05292087 1159.48242188 415.04882812 C1162.98835539 415.038666 1166.49405827 415.01908861 1170 415 C1170 410.38 1170 405.76 1170 401 C1164.555 400.505 1164.555 400.505 1159 400 C1158.34 398.02 1157.68 396.04 1157 394 C1150.4 394 1143.8 394 1137 394 Z M1559 396 C1559 397.65 1559 399.3 1559 401 C1560.98 401.66 1562.96 402.32 1565 403 C1565 400.69 1565 398.38 1565 396 C1563.02 396 1561.04 396 1559 396 Z M-543 404 C-543 404.33 -543 404.66 -543 405 C-537.72 405 -532.44 405 -527 405 C-527.33 404.34 -527.66 403.68 -528 403 C-533.12583611 402.89748328 -537.94997778 402.96409801 -543 404 Z M869 403 C868.01 403.495 868.01 403.495 867 404 C867.33 406.31 867.66 408.62 868 411 C868.99 411.33 869.98 411.66 871 412 C871.33 412.99 871.66 413.98 872 415 C873.65 415 875.3 415 877 415 C877 411.7 877 408.4 877 405 C876.05125 404.855625 875.1025 404.71125 874.125 404.5625 C871 404 871 404 869 403 Z M880 404 C880 407.3 880 410.6 880 414 C880.99 414.33 881.98 414.66 883 415 C883 411.37 883 407.74 883 404 C882.01 404 881.02 404 880 404 Z M1561 405 C1561 405.66 1561 406.32 1561 407 C1562.32 406.67 1563.64 406.34 1565 406 C1563.68 405.67 1562.36 405.34 1561 405 Z M-542 406 C-542 406.33 -542 406.66 -542 407 C-537.05 407 -532.1 407 -527 407 C-527 406.67 -527 406.34 -527 406 C-531.95 406 -536.9 406 -542 406 Z M-139 406 C-139.26932521 410.65052872 -139.26932521 410.65052872 -138 415 C-137.34 415 -136.68 415 -136 415 C-136 412.03 -136 409.06 -136 406 C-136.99 406 -137.98 406 -139 406 Z M1528.875 408 C1528.25625 408.66 1527.6375 409.32 1527 410 C1528.98 410 1530.96 410 1533 410 C1533 408.68 1533 407.36 1533 406 C1530.75637427 405.7715451 1530.75637427 405.7715451 1528.875 408 Z M1567 406 C1567 406.33 1567 406.66 1567 407 C1568.98 407 1570.96 407 1573 407 C1573 406.67 1573 406.34 1573 406 C1571.02 406 1569.04 406 1567 406 Z M-192 407 C-192 407.99 -192 408.98 -192 410 C-191.01 410 -190.02 410 -189 410 C-189 411.65 -189 413.3 -189 415 C-186.36 415 -183.72 415 -181 415 C-181 413.02 -181 411.04 -181 409 C-184.82320557 407.57741188 -187.91281305 406.75957724 -192 407 Z M1625 409 C1624.67 410.98 1624.34 412.96 1624 415 C1625.65 415 1627.3 415 1629 415 C1628.34 414.67 1627.68 414.34 1627 414 C1626.375 411.4375 1626.375 411.4375 1626 409 C1625.67 409 1625.34 409 1625 409 Z M-542 411 C-542 412.32 -542 413.64 -542 415 C-537.05 415 -532.1 415 -527 415 C-527 413.68 -527 412.36 -527 411 C-531.95 411 -536.9 411 -542 411 Z M1561 412 C1561.33 412.99 1561.66 413.98 1562 415 C1562.99 414.67 1563.98 414.34 1565 414 C1565 413.34 1565 412.68 1565 412 C1563.68 412 1562.36 412 1561 412 Z M1567 412 C1567 412.66 1567 413.32 1567 414 C1569.97 414.495 1569.97 414.495 1573 415 C1573 414.01 1573 413.02 1573 412 C1571.02 412 1569.04 412 1567 412 Z M1639 412 C1639.33 412.99 1639.66 413.98 1640 415 C1648.25 415 1656.5 415 1665 415 C1665 414.01 1665 413.02 1665 412 C1656.42 412 1647.84 412 1639 412 Z M1673 412 C1673 412.99 1673 413.98 1673 415 C1675.97 415 1678.94 415 1682 415 C1681.34 413.68 1680.68 412.36 1680 411 C1677.57202689 411 1675.37092995 411.50085685 1673 412 Z " fill="#000000" transform="translate(655,0)"/>
</svg>
